<?xml version="1.0" encoding="UTF-8"?> <svg xmlns="http://www.w3.org/2000/svg" xmlns:xlink="http://www.w3.org/1999/xlink" id="Layer_1" data-name="Layer 1" viewBox="0 0 766 542"><defs><style>.cls-1{fill:none;}.cls-2{clip-path:url(#clip-path);}.cls-3{fill:url(#linear-gradient);}.cls-4{fill:url(#linear-gradient-2);}.cls-5{fill:url(#linear-gradient-3);}.cls-6{fill:url(#linear-gradient-4);}.cls-7{fill:url(#linear-gradient-5);}.cls-8{fill:url(#linear-gradient-6);}.cls-17,.cls-9{fill:#b3cdfa;}.cls-10{fill:#ecf3ff;}.cls-11,.cls-47{fill:#fff;}.cls-12{fill:#252784;}.cls-13{fill:url(#linear-gradient-7);}.cls-14{fill:url(#linear-gradient-8);}.cls-15{fill:url(#linear-gradient-9);}.cls-16{fill:url(#linear-gradient-10);}.cls-17,.cls-27,.cls-28,.cls-40,.cls-47{isolation:isolate;}.cls-17,.cls-18{opacity:0.47;}.cls-19{fill:url(#linear-gradient-11);}.cls-20{fill:url(#linear-gradient-12);}.cls-21{fill:url(#linear-gradient-13);}.cls-22{fill:url(#linear-gradient-14);}.cls-23{fill:url(#linear-gradient-15);}.cls-24{fill:url(#linear-gradient-16);}.cls-25{fill:url(#linear-gradient-17);}.cls-26{fill:url(#linear-gradient-18);}.cls-27,.cls-28{fill:#7c96c4;}.cls-27{opacity:0.3;}.cls-28{opacity:0.2;}.cls-29{fill:url(#linear-gradient-19);}.cls-30{fill:url(#linear-gradient-20);}.cls-31{fill:url(#linear-gradient-21);}.cls-32{fill:url(#linear-gradient-22);}.cls-33{fill:url(#linear-gradient-23);}.cls-34{fill:url(#linear-gradient-24);}.cls-35{fill:#172b36;}.cls-36{fill:#eb3a4b;}.cls-37{fill:#0056ec;}.cls-38{fill:url(#linear-gradient-25);}.cls-39{fill:#1890ff;}.cls-40{fill:#004fa0;opacity:0.4;}.cls-41{fill:url(#linear-gradient-26);}.cls-42{fill:url(#linear-gradient-27);}.cls-43{fill:url(#linear-gradient-28);}.cls-44{fill:#292929;}.cls-45{fill:url(#linear-gradient-29);}.cls-46{fill:#005ff0;}.cls-47{opacity:0.5;}.cls-48{fill:url(#linear-gradient-30);}.cls-49{fill:url(#linear-gradient-31);}.cls-50{fill:#4d5057;}.cls-51{fill:url(#linear-gradient-32);}.cls-52{fill:url(#linear-gradient-33);}.cls-53{fill:url(#linear-gradient-34);}.cls-54{fill:url(#linear-gradient-35);}.cls-55{fill:url(#linear-gradient-36);}.cls-56{fill:url(#linear-gradient-37);}.cls-57{fill:url(#linear-gradient-38);}.cls-58{fill:url(#linear-gradient-39);}.cls-59{fill:#f7ede2;}.cls-60{fill:#fff5dc;}.cls-61{fill:#f0daa5;}</style><clipPath id="clip-path"><rect class="cls-1" width="766" height="542"></rect></clipPath><linearGradient id="linear-gradient" x1="109.75" y1="443.69" x2="118.96" y2="449.05" gradientTransform="matrix(1, 0, 0, -1, 0, 544)" gradientUnits="userSpaceOnUse"><stop offset="0" stop-color="#fa902f"></stop><stop offset="0.17" stop-color="#f7a030"></stop><stop offset="0.45" stop-color="#f3b530"></stop><stop offset="0.73" stop-color="#f1c231"></stop><stop offset="1" stop-color="#f0c631"></stop></linearGradient><linearGradient id="linear-gradient-2" x1="4108.38" y1="2770.91" x2="4176.42" y2="2816.61" xlink:href="#linear-gradient"></linearGradient><linearGradient id="linear-gradient-3" x1="150.26" y1="422.53" x2="139.62" y2="422.53" gradientTransform="matrix(1, 0, 0, -1, 0, 544)" gradientUnits="userSpaceOnUse"><stop offset="0" stop-color="#0056ec"></stop><stop offset="1" stop-color="#008bec"></stop></linearGradient><linearGradient id="linear-gradient-4" x1="148.03" y1="462.97" x2="142.65" y2="472.18" gradientTransform="matrix(1, 0, 0, -1, 0, 544)" gradientUnits="userSpaceOnUse"><stop offset="0" stop-color="#d0471e"></stop><stop offset="0.22" stop-color="#d95e13"></stop><stop offset="0.49" stop-color="#e17308"></stop><stop offset="0.75" stop-color="#e68002"></stop><stop offset="1" stop-color="#e88400"></stop></linearGradient><linearGradient id="linear-gradient-5" x1="6143.7" y1="441.1" x2="6229.08" y2="441.1" xlink:href="#linear-gradient-3"></linearGradient><linearGradient id="linear-gradient-6" x1="720.96" y1="-6101.14" x2="720.96" y2="-6175.06" xlink:href="#linear-gradient-3"></linearGradient><linearGradient id="linear-gradient-7" x1="2381.36" y1="491.48" x2="2410.48" y2="491.48" xlink:href="#linear-gradient-3"></linearGradient><linearGradient id="linear-gradient-8" x1="1645.21" y1="1191.03" x2="1680.18" y2="1207.96" xlink:href="#linear-gradient"></linearGradient><linearGradient id="linear-gradient-9" x1="2542.18" y1="492.91" x2="2572.43" y2="492.91" xlink:href="#linear-gradient-3"></linearGradient><linearGradient id="linear-gradient-10" x1="183.05" y1="331.57" x2="208.28" y2="331.57" gradientTransform="matrix(1, 0, 0, -1, 0, 544)" gradientUnits="userSpaceOnUse"><stop offset="0" stop-color="#008dec"></stop><stop offset="1" stop-color="#008bec"></stop></linearGradient><linearGradient id="linear-gradient-11" x1="603.94" y1="801.91" x2="860.94" y2="1037.25" xlink:href="#linear-gradient-4"></linearGradient><linearGradient id="linear-gradient-12" x1="5266.97" y1="310.45" x2="5592.53" y2="310.45" xlink:href="#linear-gradient-10"></linearGradient><linearGradient id="linear-gradient-13" x1="1585.07" y1="1715.59" x2="1841.33" y2="1951.22" xlink:href="#linear-gradient-4"></linearGradient><linearGradient id="linear-gradient-14" x1="6359.85" y1="379.35" x2="6685.41" y2="379.35" xlink:href="#linear-gradient-10"></linearGradient><linearGradient id="linear-gradient-15" x1="15.6" y1="229.61" x2="45.39" y2="229.61" gradientTransform="matrix(1, 0, 0, -1, 0, 544)" gradientUnits="userSpaceOnUse"><stop offset="0" stop-color="#d1e2ff"></stop><stop offset="1" stop-color="#ecf3ff"></stop></linearGradient><linearGradient id="linear-gradient-16" x1="8180.9" y1="283.84" x2="8848.79" y2="283.84" xlink:href="#linear-gradient-15"></linearGradient><linearGradient id="linear-gradient-17" x1="8955.95" y1="309.32" x2="9624.43" y2="309.32" xlink:href="#linear-gradient-15"></linearGradient><linearGradient id="linear-gradient-18" x1="7414.81" y1="256.87" x2="8082.7" y2="256.87" xlink:href="#linear-gradient-15"></linearGradient><linearGradient id="linear-gradient-19" x1="34083.4" y1="55.68" x2="46165.5" y2="55.68" xlink:href="#linear-gradient-15"></linearGradient><linearGradient id="linear-gradient-20" x1="29269" y1="43.37" x2="41351.1" y2="43.37" xlink:href="#linear-gradient-15"></linearGradient><linearGradient id="linear-gradient-21" x1="1454.67" y1="2218.67" x2="1757.47" y2="2766.33" xlink:href="#linear-gradient-4"></linearGradient><linearGradient id="linear-gradient-22" x1="403.25" y1="396.59" x2="386.94" y2="363.04" gradientTransform="matrix(1, 0, 0, -1, 0, 544)" gradientUnits="userSpaceOnUse"><stop offset="0" stop-color="#eec9c8"></stop><stop offset="0.25" stop-color="#edc4c2"></stop><stop offset="0.57" stop-color="#ecb4b3"></stop><stop offset="0.93" stop-color="#e99a98"></stop><stop offset="1" stop-color="#e89492"></stop></linearGradient><linearGradient id="linear-gradient-23" x1="290.87" y1="379.18" x2="293.18" y2="346.28" gradientTransform="matrix(1, 0, 0, -1, 0, 544)" gradientUnits="userSpaceOnUse"><stop offset="0" stop-color="#e85f5a"></stop><stop offset="1" stop-color="#eec9c8"></stop></linearGradient><linearGradient id="linear-gradient-24" x1="285.76" y1="384.52" x2="323.49" y2="389.6" gradientTransform="matrix(1, 0, 0, -1, 0, 544)" gradientUnits="userSpaceOnUse"><stop offset="0" stop-color="#e89492"></stop><stop offset="0.07" stop-color="#e99a98"></stop><stop offset="0.43" stop-color="#ecb4b3"></stop><stop offset="0.75" stop-color="#edc4c2"></stop><stop offset="1" stop-color="#eec9c8"></stop></linearGradient><linearGradient id="linear-gradient-25" x1="1851.02" y1="2841.02" x2="2153.82" y2="3388.68" xlink:href="#linear-gradient-4"></linearGradient><linearGradient id="linear-gradient-26" x1="3530.21" y1="27.32" x2="8452.97" y2="27.32" xlink:href="#linear-gradient-15"></linearGradient><linearGradient id="linear-gradient-27" x1="19371.5" y1="61.58" x2="23668" y2="61.58" xlink:href="#linear-gradient-15"></linearGradient><linearGradient id="linear-gradient-28" x1="98.71" y1="107.37" x2="98.71" y2="90.93" gradientTransform="matrix(1, 0, 0, -1, 0, 544)" gradientUnits="userSpaceOnUse"><stop offset="0" stop-color="#008bec"></stop><stop offset="1" stop-color="#0056ec"></stop></linearGradient><linearGradient id="linear-gradient-29" x1="1644.76" y1="247.57" x2="1743.92" y2="250.68" xlink:href="#linear-gradient-23"></linearGradient><linearGradient id="linear-gradient-30" x1="15803.19" y1="-16067.57" x2="16550.89" y2="-16868.07" xlink:href="#linear-gradient-22"></linearGradient><linearGradient id="linear-gradient-31" x1="18928.23" y1="-41255.85" x2="19868.23" y2="-43370.04" xlink:href="#linear-gradient-24"></linearGradient><linearGradient id="linear-gradient-32" x1="560.43" y1="32.12" x2="568.86" y2="31.9" gradientTransform="matrix(1, 0, 0, -1, 0, 544)" gradientUnits="userSpaceOnUse"><stop offset="0" stop-color="#172b36"></stop><stop offset="1" stop-color="#325d75"></stop></linearGradient><linearGradient id="linear-gradient-33" x1="1733.23" y1="-15718.89" x2="1828.43" y2="-17088.39" xlink:href="#linear-gradient-24"></linearGradient><linearGradient id="linear-gradient-34" x1="26078.37" y1="-7234.95" x2="25117.27" y2="-6952.15" xlink:href="#linear-gradient-24"></linearGradient><linearGradient id="linear-gradient-35" x1="611.59" y1="225.1" x2="638.03" y2="225.1" gradientTransform="matrix(1, 0, 0, -1, 0, 544)" gradientUnits="userSpaceOnUse"><stop offset="0" stop-color="#fff5dc"></stop><stop offset="0.34" stop-color="#fff6e0"></stop><stop offset="0.67" stop-color="#fff9eb"></stop><stop offset="1" stop-color="#fff"></stop></linearGradient><linearGradient id="linear-gradient-36" x1="17111.47" y1="-42536.45" x2="17911.17" y2="-44589.05" xlink:href="#linear-gradient-24"></linearGradient><linearGradient id="linear-gradient-37" x1="4955.02" y1="-87.32" x2="5049.52" y2="-89.66" xlink:href="#linear-gradient-32"></linearGradient><linearGradient id="linear-gradient-38" x1="33142.19" y1="-1371.93" x2="31169.19" y2="-1277.33" xlink:href="#linear-gradient-24"></linearGradient><linearGradient id="linear-gradient-39" x1="8988.92" y1="183.38" x2="9128.31" y2="183.38" xlink:href="#linear-gradient-35"></linearGradient></defs><g class="cls-2"><path class="cls-3" d="M110.84,99.65l5.32-9.23,5.31,9.23Z"></path><path class="cls-4" d="M670.75,81.33l5.31-9.23,5.32,9.23Z"></path><path class="cls-5" d="M150.25,116.86l-5.31,9.23-5.32-9.23Z"></path><path class="cls-6" d="M147.34,80l-9.21-5.33,9.21-5.33Z"></path><path class="cls-7" d="M681.12,107.53l5.32-9.25,5.33,9.25Z"></path><path class="cls-8" d="M716.35,60l9.21,5.31-9.21,5.34Z"></path><path class="cls-9" d="M723.16,157.48h-.24l-18.32-7.34a.59.59,0,0,1-.3-.24.63.63,0,0,1-.12-.37V125.64a.6.6,0,0,1,.07-.3.52.52,0,0,1,.21-.23.59.59,0,0,1,.27-.14.65.65,0,0,1,.31,0l18.12,5.45L741.29,125a.65.65,0,0,1,.31,0,.67.67,0,0,1,.54.66v23.85a.7.7,0,0,1-.11.37.64.64,0,0,1-.3.24l-18.32,7.35a.69.69,0,0,1-.25,0ZM705.5,149l17.66,7.08L740.82,149v-22.5l-17.46,5.25a.86.86,0,0,1-.39,0l-17.47-5.25Z"></path><path class="cls-9" d="M741.48,126.3h-.19l-18.13-5.45L705,126.3a.7.7,0,0,1-.53-.06.68.68,0,0,1-.33-.41.69.69,0,0,1,.48-.86l18.31-5.5a.65.65,0,0,1,.39,0l18.31,5.5a.66.66,0,0,1,.39.32.67.67,0,0,1-.18.86A.59.59,0,0,1,741.48,126.3Z"></path><path class="cls-9" d="M723.16,156.7V131l18.32-5.37v23.85Z"></path><path class="cls-9" d="M745.15,188.68a.76.76,0,0,1-.3,0l-14.6-7.34a.72.72,0,0,1-.27-.25.6.6,0,0,1-.1-.35V164.16a.68.68,0,0,1,.08-.31.66.66,0,0,1,.21-.23.64.64,0,0,1,.3-.08.65.65,0,0,1,.31.08L745.2,169l14.41-5.41a.68.68,0,0,1,.31-.08.61.61,0,0,1,.3.08.69.69,0,0,1,.22.23.68.68,0,0,1,.08.31v16.52a.66.66,0,0,1-.11.35.6.6,0,0,1-.26.24l-14.61,7.34A.67.67,0,0,1,745.15,188.68Zm-14-8.42,14,7,14-7V165.1l-13.76,5.16a.64.64,0,0,1-.47,0l-13.76-5.16Z"></path><path class="cls-9" d="M759.8,164.82a.49.49,0,0,1-.24,0l-14.41-5.41-14.42,5.41a.7.7,0,0,1-.27.08.62.62,0,0,1-.27-.05.61.61,0,0,1-.24-.15,1.14,1.14,0,0,1-.15-.23.86.86,0,0,1,0-.28.61.61,0,0,1,.08-.26.62.62,0,0,1,.17-.22.64.64,0,0,1,.25-.12l14.61-5.51a.59.59,0,0,1,.23-.05.6.6,0,0,1,.24.05L760,163.59a.65.65,0,0,1,.37.34.61.61,0,0,1,0,.51.62.62,0,0,1-.22.26.6.6,0,0,1-.32.12Z"></path><path class="cls-9" d="M745.15,187.88V169.54l14.65-5.37v16.52Z"></path><path class="cls-9" d="M701.24,205.2a.67.67,0,0,1-.2,0l-22-7.34a.65.65,0,0,1-.45-.63v-29.4a.63.63,0,0,1,.07-.3.6.6,0,0,1,.19-.23.67.67,0,0,1,.29-.12.54.54,0,0,1,.31,0l21.77,7.27L723,167.21a.54.54,0,0,1,.31,0,.5.5,0,0,1,.28.12.66.66,0,0,1,.21.23.78.78,0,0,1,.07.3v29.36a.69.69,0,0,1-.12.39.73.73,0,0,1-.33.24l-22,7.34a.78.78,0,0,1-.22,0Zm-21.3-8.49,21.3,7.12,21.24-7.12V168.79l-21.1,7.05a.75.75,0,0,1-.42,0l-21.1-7.05Z"></path><path class="cls-9" d="M723.16,168.49H723l-21.71-7.3-21.77,7.28a.66.66,0,0,1-.5,0,.64.64,0,0,1-.33-.39.62.62,0,0,1,0-.5.65.65,0,0,1,.38-.33l22-7.34a.61.61,0,0,1,.42,0l22,7.34a.65.65,0,0,1,.44.27.67.67,0,0,1,.12.5.68.68,0,0,1-.27.43.7.7,0,0,1-.5.13Z"></path><path class="cls-9" d="M701.18,175V204.4l22-7.21V167.84Z"></path><path class="cls-10" d="M657.35,393.7,200.68,358.76c-3-.23-5.41-3.39-5.41-7.06V50.84c0-3.67,2.41-6.84,5.41-7.06L657.35,8.83a7.51,7.51,0,0,1,3.09.36,7.44,7.44,0,0,1,5,7.19V386.15a7.41,7.41,0,0,1-.6,3.05,7.53,7.53,0,0,1-4.45,4.14,7.51,7.51,0,0,1-3.09.36Z"></path><path class="cls-11" d="M640.88,385.55,184.21,350.61c-3-.23-5.42-3.39-5.42-7.06V42.69c0-3.67,2.43-6.84,5.42-7.07L640.88.68A7.44,7.44,0,0,1,644,1,7.46,7.46,0,0,1,649,8.19V378a7.58,7.58,0,0,1-.6,3.05,7.44,7.44,0,0,1-1.78,2.55,7.56,7.56,0,0,1-2.67,1.59,7.32,7.32,0,0,1-3.08.36Z"></path><path class="cls-10" d="M649,8.19a7.58,7.58,0,0,0-.6-3,7.43,7.43,0,0,0-1.79-2.54,7.45,7.45,0,0,0-5.74-2L184.21,35.58c-3,.23-5.42,3.4-5.42,7.07v28L649,42.77Z"></path><path class="cls-12" d="M641.5,386.24h-.67l-456.74-35c-3.32-.25-6-3.72-6-7.72V42.69c0-4,2.66-7.48,6-7.73L640.83,0a8.05,8.05,0,0,1,6.23,2.11,8.09,8.09,0,0,1,2.61,6V378a8.36,8.36,0,0,1-.59,3.16,8.1,8.1,0,0,1-7.58,5.08Zm0-384.91h-.57l-456.73,35c-2.66.2-4.81,3.07-4.81,6.4V343.55c0,3.32,2.16,6.19,4.81,6.39l456.73,34.95a6.7,6.7,0,0,0,2.81-.34,6.62,6.62,0,0,0,2.43-1.45,6.74,6.74,0,0,0,1.63-2.32,6.82,6.82,0,0,0,.54-2.78V8.19a6.76,6.76,0,0,0-.5-2.63,6.73,6.73,0,0,0-3.71-3.72,6.73,6.73,0,0,0-2.63-.51Z"></path><path class="cls-13" d="M194.51,52.31a3.82,3.82,0,0,1-.79,2.59,3.74,3.74,0,0,1-2.32,1.4,3.12,3.12,0,0,1-1.27-.31,3.22,3.22,0,0,1-1.69-2,3.24,3.24,0,0,1-.13-1.31,3.89,3.89,0,0,1,.79-2.59,3.81,3.81,0,0,1,2.3-1.4,3.21,3.21,0,0,1,2.34,1.11,3.1,3.1,0,0,1,.64,1.15,3.22,3.22,0,0,1,.13,1.31Z"></path><path class="cls-14" d="M204.85,51.61A3.8,3.8,0,0,1,204,54.2a3.86,3.86,0,0,1-2.32,1.4,3.35,3.35,0,0,1-1.29-.31,3.26,3.26,0,0,1-1.06-.81,3.1,3.1,0,0,1-.65-1.16,3.15,3.15,0,0,1-.13-1.33,3.8,3.8,0,0,1,3.13-4,3.35,3.35,0,0,1,1.29.31,3.13,3.13,0,0,1,1.06.81,3.27,3.27,0,0,1,.66,1.16,3.32,3.32,0,0,1,.12,1.33Z"></path><path class="cls-15" d="M215.29,50.9a3.89,3.89,0,0,1-.84,2.6,3.82,3.82,0,0,1-2.34,1.39,3.18,3.18,0,0,1-1.29-.31,3.26,3.26,0,0,1-1.07-.81,3.4,3.4,0,0,1-.65-1.16,3.17,3.17,0,0,1-.13-1.33,3.83,3.83,0,0,1,.82-2.59,3.77,3.77,0,0,1,2.32-1.4,3.15,3.15,0,0,1,1.31.31,3.28,3.28,0,0,1,1.87,3.3Z"></path><path class="cls-10" d="M460.19,63V93.6l182.72-7.79v-33Z"></path><path class="cls-10" d="M586,373.94,460.19,364.7V102.3L586,97.41Z"></path><path class="cls-10" d="M449,230.68l-138.72-2.25V71.34L449,63.62Z"></path><path class="cls-16" d="M208.28,347.84,183.05,346V78.43L208.28,77Z"></path><path class="cls-9" d="M557.19,261.21h-3.25a4.58,4.58,0,0,1-4.33-4.62v-3.38a4.38,4.38,0,0,1,.3-1.68,4.33,4.33,0,0,1,.94-1.44,4.44,4.44,0,0,1,1.41-1,4.38,4.38,0,0,1,1.68-.33l3.25.06a4.53,4.53,0,0,1,4.36,4.6v3.41a4.55,4.55,0,0,1-.32,1.67,4.37,4.37,0,0,1-1,1.42,4.33,4.33,0,0,1-3.09,1.26Z"></path><path class="cls-9" d="M573.24,261.59l-3.3-.08a4.58,4.58,0,0,1-4.38-4.64v-3.39a4.3,4.3,0,0,1,.3-1.7,4.39,4.39,0,0,1,.95-1.45,4.22,4.22,0,0,1,1.43-1,4.12,4.12,0,0,1,1.7-.33h3.3a4.6,4.6,0,0,1,4.41,4.64v3.43a4.39,4.39,0,0,1-.29,1.72,4.38,4.38,0,0,1-2.4,2.45,4.41,4.41,0,0,1-1.72.32Z"></path><path class="cls-11" d="M480,275.48l-3-.1a4.36,4.36,0,0,1-4.06-4.56V267.5a4.19,4.19,0,0,1,.26-1.61,4.09,4.09,0,0,1,2.21-2.31,4,4,0,0,1,1.59-.34l3,.08a4.36,4.36,0,0,1,4.09,4.48v3.3a4.17,4.17,0,0,1-1.09,3.08,4.1,4.1,0,0,1-1.37,1,4.14,4.14,0,0,1-1.63.34Z"></path><path class="cls-11" d="M495.06,275.87l-3.09-.09a4.43,4.43,0,0,1-4.11-4.52V268a4.09,4.09,0,0,1,.27-1.62A3.91,3.91,0,0,1,489,265a4.08,4.08,0,0,1,3-1.27l3.09.08a4.41,4.41,0,0,1,4.15,4.52v3.3a4.15,4.15,0,0,1-1.16,3,4.25,4.25,0,0,1-1.36.94,4,4,0,0,1-1.63.32Z"></path><path class="cls-11" d="M510.29,276.34l-3.13-.09A4.48,4.48,0,0,1,503,271.7v-3.33a4.17,4.17,0,0,1,2.54-4,4.08,4.08,0,0,1,1.62-.33l3.13.07a4.48,4.48,0,0,1,4.2,4.55V272a4.44,4.44,0,0,1-.28,1.65,4.18,4.18,0,0,1-.91,1.4,4.23,4.23,0,0,1-1.38.94,4.3,4.3,0,0,1-1.63.32Z"></path><path class="cls-11" d="M525.73,276.8l-3.17-.1a4.49,4.49,0,0,1-3-1.44,4.44,4.44,0,0,1-1.19-3.14v-3.29a4.09,4.09,0,0,1,.28-1.66,4.22,4.22,0,0,1,2.29-2.35,4.23,4.23,0,0,1,1.65-.33l3.17.08a4.52,4.52,0,0,1,3,1.43,4.47,4.47,0,0,1,1.21,3.14v3.36a4.21,4.21,0,0,1-2.61,4,4,4,0,0,1-1.64.32Z"></path><path class="cls-11" d="M541.35,277.3l-3.21-.11a4.53,4.53,0,0,1-4.27-4.6v-3.36a4.19,4.19,0,0,1,.29-1.68,4.29,4.29,0,0,1,.92-1.42,4.45,4.45,0,0,1,1.4-.95,4.5,4.5,0,0,1,1.66-.32l3.21.08a4.56,4.56,0,0,1,4.31,4.62v3.36a4.38,4.38,0,0,1-.3,1.68,4.33,4.33,0,0,1-.92,1.43,4.44,4.44,0,0,1-1.41,1,4.37,4.37,0,0,1-1.68.32Z"></path><path class="cls-9" d="M557.19,277.79l-3.25-.11a4.6,4.6,0,0,1-4.33-4.64v-3.38a4.38,4.38,0,0,1,.3-1.68,4.3,4.3,0,0,1,.93-1.44,4.35,4.35,0,0,1,3.1-1.28l3.25.1a4.56,4.56,0,0,1,4.36,4.64v3.39a4.41,4.41,0,0,1-1.24,3.13,4.42,4.42,0,0,1-1.43,1,4.27,4.27,0,0,1-1.69.32Z"></path><path class="cls-9" d="M573.24,278.28l-3.3-.11a4.61,4.61,0,0,1-4.38-4.66v-3.35a4.27,4.27,0,0,1,.3-1.7,4.39,4.39,0,0,1,.95-1.45,4.44,4.44,0,0,1,1.43-1,4.32,4.32,0,0,1,1.7-.32l3.3.09a4.61,4.61,0,0,1,4.41,4.67v3.42a4.31,4.31,0,0,1-.33,1.69,4.27,4.27,0,0,1-1,1.42,4.35,4.35,0,0,1-1.44,1,4.23,4.23,0,0,1-1.69.31Z"></path><path class="cls-11" d="M480,291.43l-3-.1a4.43,4.43,0,0,1-4.06-4.53v-3.27a3.87,3.87,0,0,1,.26-1.61,3.81,3.81,0,0,1,.87-1.37,4,4,0,0,1,1.34-.93,4.1,4.1,0,0,1,1.59-.32l3,.1a4.41,4.41,0,0,1,4.09,4.52v3.28a4.09,4.09,0,0,1-.24,1.63,4,4,0,0,1-2.23,2.31,3.91,3.91,0,0,1-1.62.29Z"></path><path class="cls-11" d="M495.06,292,492,291.9a4.45,4.45,0,0,1-4.11-4.55v-3.28a3.93,3.93,0,0,1,.26-1.63,4.21,4.21,0,0,1,.88-1.39,4.07,4.07,0,0,1,1.36-.93,3.89,3.89,0,0,1,1.61-.32l3.09.1a4.46,4.46,0,0,1,4.15,4.55v3.31a4.11,4.11,0,0,1-2.53,3.94A4.07,4.07,0,0,1,495.06,292Z"></path><path class="cls-11" d="M510.29,292.59l-3.13-.12a4.45,4.45,0,0,1-3-1.45,4.52,4.52,0,0,1-1.17-3.13v-3.31a4.11,4.11,0,0,1,.27-1.63,4,4,0,0,1,.89-1.4,4.14,4.14,0,0,1,1.37-.94,4,4,0,0,1,1.63-.32l3.13.1a4.52,4.52,0,0,1,3,1.45,4.42,4.42,0,0,1,1.18,3.13v3.34a4,4,0,0,1-.27,1.64,4.15,4.15,0,0,1-3.92,2.64Z"></path><path class="cls-11" d="M525.73,293.17l-3.17-.12a4.53,4.53,0,0,1-4.22-4.61V285.1a4.16,4.16,0,0,1,2.57-4,4.22,4.22,0,0,1,1.65-.32l3.17.11a4.55,4.55,0,0,1,4.25,4.6v3.35a4.23,4.23,0,0,1-1.2,3.07,4.18,4.18,0,0,1-3,1.25Z"></path><path class="cls-11" d="M541.35,293.76l-3.21-.12a4.58,4.58,0,0,1-4.27-4.64v-3.37a4.13,4.13,0,0,1,.29-1.66,4.29,4.29,0,0,1,.92-1.42,4.42,4.42,0,0,1,1.4-.94,4.29,4.29,0,0,1,1.66-.31l3.21.1a4.6,4.6,0,0,1,4.31,4.71v3.38a4.21,4.21,0,0,1-.31,1.65,4.16,4.16,0,0,1-.94,1.4,4.06,4.06,0,0,1-1.4.92,4.28,4.28,0,0,1-1.66.3Z"></path><path class="cls-9" d="M557.19,294.36l-3.25-.14a4.62,4.62,0,0,1-4.33-4.66v-3.38a4.38,4.38,0,0,1,.3-1.68,4.26,4.26,0,0,1,4-2.68l3.25.1a4.63,4.63,0,0,1,4.36,4.67V290a4.26,4.26,0,0,1-.31,1.69,4,4,0,0,1-.94,1.43,4.23,4.23,0,0,1-3.11,1.26Z"></path><path class="cls-9" d="M573.24,295l-3.3-.12a4.67,4.67,0,0,1-4.38-4.71v-3.41a4.25,4.25,0,0,1,.3-1.69,4.35,4.35,0,0,1,.95-1.44,4.42,4.42,0,0,1,1.43-.95,4.3,4.3,0,0,1,1.7-.3l3.3.1a4.69,4.69,0,0,1,4.41,4.7v3.43a4.31,4.31,0,0,1-.31,1.7,4.35,4.35,0,0,1-1,1.44,4.3,4.3,0,0,1-3.15,1.25Z"></path><path class="cls-11" d="M480,307.49l-3-.13a4.45,4.45,0,0,1-4.06-4.54v-3.28a4,4,0,0,1,.24-1.61,4.25,4.25,0,0,1,.87-1.38,4,4,0,0,1,3-1.21l3,.12a4.45,4.45,0,0,1,4.09,4.55v3.28a4,4,0,0,1-2.48,3.91,3.87,3.87,0,0,1-1.61.29Z"></path><path class="cls-11" d="M495.06,308.16,492,308a4.52,4.52,0,0,1-3-1.48,4.47,4.47,0,0,1-1.15-3.1v-3.3a3.84,3.84,0,0,1,.26-1.61,4.08,4.08,0,0,1,.89-1.39,4.2,4.2,0,0,1,1.35-.92,4,4,0,0,1,1.61-.3l3.09.12a4.5,4.5,0,0,1,4.15,4.57v3.31a4.11,4.11,0,0,1-.27,1.63,4.2,4.2,0,0,1-.89,1.38,4.07,4.07,0,0,1-3,1.22Z"></path><path class="cls-11" d="M510.29,308.84l-3.13-.13a4.56,4.56,0,0,1-4.16-4.62v-3.35a4.11,4.11,0,0,1,.27-1.63,4,4,0,0,1,.9-1.39,4,4,0,0,1,1.36-.93,4.33,4.33,0,0,1,1.63-.31l3.13.13a4.5,4.5,0,0,1,4.19,4.61v3.32a4.09,4.09,0,0,1-1.16,3.07,4,4,0,0,1-1.39.93,4.19,4.19,0,0,1-1.64.3Z"></path><path class="cls-11" d="M525.73,309.53l-3.17-.15a4.57,4.57,0,0,1-4.22-4.64V301.4a4,4,0,0,1,.28-1.64,4.16,4.16,0,0,1,2.3-2.33,4.16,4.16,0,0,1,1.64-.31l3.17.14a4.59,4.59,0,0,1,4.25,4.62v3.37a4.15,4.15,0,0,1-4.25,4.28Z"></path><path class="cls-11" d="M541.35,310.22l-3.21-.14a4.62,4.62,0,0,1-4.27-4.67v-3.34a4.15,4.15,0,0,1,.29-1.67,4,4,0,0,1,.92-1.41,4.26,4.26,0,0,1,1.4-.94,4.11,4.11,0,0,1,1.66-.3l3.21.13a4.64,4.64,0,0,1,4.31,4.67v3.38a4.28,4.28,0,0,1-.3,1.66,4.16,4.16,0,0,1-4,2.63Z"></path><path class="cls-9" d="M557.19,310.93l-3.25-.15a4.65,4.65,0,0,1-4.33-4.71V302.7a4.35,4.35,0,0,1,.3-1.68,4.26,4.26,0,0,1,.93-1.43,4.32,4.32,0,0,1,1.42-.93,4.06,4.06,0,0,1,1.68-.3l3.25.13a4.67,4.67,0,0,1,4.36,4.7v3.4a4.43,4.43,0,0,1-.3,1.69,4.21,4.21,0,0,1-4.06,2.65Z"></path><path class="cls-9" d="M573.24,311.63l-3.3-.15a4.69,4.69,0,0,1-4.38-4.73V303.4a4.3,4.3,0,0,1,.3-1.7,4.34,4.34,0,0,1,2.38-2.38,4.48,4.48,0,0,1,1.7-.3l3.3.14a4.72,4.72,0,0,1,4.41,4.73v3.42a4.27,4.27,0,0,1-.32,1.69,4.15,4.15,0,0,1-1,1.42,4.3,4.3,0,0,1-1.44.93,4.23,4.23,0,0,1-1.69.28Z"></path><path class="cls-11" d="M480,323.55l-3-.16a4.49,4.49,0,0,1-4.06-4.58v-3.27a4,4,0,0,1,.25-1.6,4.1,4.1,0,0,1,.87-1.37,4,4,0,0,1,1.35-.91,3.91,3.91,0,0,1,1.59-.3l3,.14a4.49,4.49,0,0,1,4.09,4.57v3.29a4,4,0,0,1-.25,1.61,4.11,4.11,0,0,1-.88,1.38,4,4,0,0,1-1.35.91,4.21,4.21,0,0,1-1.61.29Z"></path><path class="cls-11" d="M495.06,324.3l-3.09-.14a4.54,4.54,0,0,1-4.11-4.62v-3.28a3.88,3.88,0,0,1,.25-1.62,4,4,0,0,1,3.86-2.58l3.09.13a4.54,4.54,0,0,1,4.15,4.61v3.31a4.1,4.1,0,0,1-.26,1.63,4,4,0,0,1-.89,1.38,4,4,0,0,1-3,1.18Z"></path><path class="cls-11" d="M510.29,325.09l-3.13-.16A4.58,4.58,0,0,1,503,320.3V317a4,4,0,0,1,2.53-4,4.1,4.1,0,0,1,1.63-.3l3.13.14a4.59,4.59,0,0,1,4.2,4.64v3.33a4.24,4.24,0,0,1-.27,1.65,3.82,3.82,0,0,1-.9,1.41,4.1,4.1,0,0,1-3,1.21Z"></path><path class="cls-11" d="M525.73,325.89l-3.17-.18a4.59,4.59,0,0,1-4.22-4.65v-3.34a4.16,4.16,0,0,1,.27-1.64,4.11,4.11,0,0,1,.92-1.4,3.89,3.89,0,0,1,1.38-.92,4.08,4.08,0,0,1,1.65-.29l3.17.14a4.64,4.64,0,0,1,4.25,4.67v3.35a4,4,0,0,1-.29,1.65,4.12,4.12,0,0,1-4,2.61Z"></path><path class="cls-11" d="M541.35,326.68l-3.21-.17a4.64,4.64,0,0,1-4.27-4.69v-3.35a4.07,4.07,0,0,1,.29-1.66,4,4,0,0,1,.92-1.41,4.23,4.23,0,0,1,1.4-.93,4.31,4.31,0,0,1,1.66-.29l3.21.15a4.67,4.67,0,0,1,4.31,4.69v3.38a4.32,4.32,0,0,1-.29,1.67A4.12,4.12,0,0,1,543,326.4a4,4,0,0,1-1.67.28Z"></path><path class="cls-9" d="M557.19,327.49l-3.3-.15a4.69,4.69,0,0,1-4.33-4.73v-3.39a4.15,4.15,0,0,1,.29-1.67,4.36,4.36,0,0,1,.94-1.41,4.16,4.16,0,0,1,1.42-.93,4.21,4.21,0,0,1,1.68-.28l3.25.15a4.69,4.69,0,0,1,4.35,4.73v3.39a4.1,4.1,0,0,1-.29,1.66,4.33,4.33,0,0,1-.93,1.41,4.16,4.16,0,0,1-1.42.93,4.07,4.07,0,0,1-1.66.29Z"></path><path class="cls-9" d="M573.24,328.32l-3.3-.17a4.81,4.81,0,0,1-3.13-1.52,4.75,4.75,0,0,1-1.25-3.24V320a4.25,4.25,0,0,1,.3-1.69,4.42,4.42,0,0,1,.95-1.43,4.3,4.3,0,0,1,1.44-.93,4,4,0,0,1,1.69-.28l3.3.14a4.76,4.76,0,0,1,4.41,4.78V324a4.28,4.28,0,0,1-.31,1.7,4.07,4.07,0,0,1-1,1.43,4.26,4.26,0,0,1-3.15,1.21Z"></path><path class="cls-11" d="M480,339.58l-3-.17a4.53,4.53,0,0,1-4.06-4.6v-3.27a4.14,4.14,0,0,1,.26-1.6,4.06,4.06,0,0,1,.87-1.36,4.21,4.21,0,0,1,1.34-.9,4.15,4.15,0,0,1,1.59-.29l3,.16a4.52,4.52,0,0,1,4.09,4.6v3.28a4.22,4.22,0,0,1-.26,1.61,4.08,4.08,0,0,1-.88,1.36,4.2,4.2,0,0,1-1.35.9A4,4,0,0,1,480,339.58Z"></path><path class="cls-11" d="M580.76,86.65l-8.14.36a10,10,0,0,1-7.52-2.6,10.11,10.11,0,0,1-3.25-7.27V69.36a11.3,11.3,0,0,1,10.77-10.93l8.14-.44a9.87,9.87,0,0,1,4.07.47,10.17,10.17,0,0,1,3.54,2.06,10.06,10.06,0,0,1,3.31,7.32v7.85a11.28,11.28,0,0,1-10.92,11Z"></path><path class="cls-11" d="M623,84.84l-8.42.37a10.15,10.15,0,0,1-4.13-.5,10.28,10.28,0,0,1-7-9.52V67.3a11.57,11.57,0,0,1,11.12-11.13l8.42-.45c6.24-.35,11.32,4.13,11.32,10v8C634.36,79.59,629.28,84.57,623,84.84Z"></path><path class="cls-9" d="M610.88,63.52V74.47l4.34-.22V78l4.39-4,7.21-.33v-11Z"></path><path class="cls-9" d="M581.77,80.12c-5.24.14-11.75-6.28-11.86-11.65a3.57,3.57,0,0,1,.48-1.42,3.61,3.61,0,0,1,1-1.11l1.17-.75a1.38,1.38,0,0,1,.73-.24,1.28,1.28,0,0,1,.64.11,1.31,1.31,0,0,1,.51.42l2.14,3a1.38,1.38,0,0,1,.23.49,1.35,1.35,0,0,1,0,.53,1.44,1.44,0,0,1-.19.5,1.37,1.37,0,0,1-.38.38l-1.33,1a10.27,10.27,0,0,0,1.74,2,10.47,10.47,0,0,0,2.16,1.59l.93-1.33a1.52,1.52,0,0,1,.89-.57,1.46,1.46,0,0,1,1,.15l3.14,1.95a1.29,1.29,0,0,1,.58.84,1.31,1.31,0,0,1-.18,1l-.71,1.19A4.78,4.78,0,0,1,581.77,80.12Z"></path><path class="cls-17" d="M433.85,354.3a4,4,0,0,1-1.15,3.1,4,4,0,0,1-1.4.93,3.93,3.93,0,0,1-1.66.28,4.74,4.74,0,0,1-3-1.64,4.82,4.82,0,0,1-1.15-3.25,4.24,4.24,0,0,1,.24-1.66A4.11,4.11,0,0,1,428,349.7a4.08,4.08,0,0,1,1.65-.29,4.81,4.81,0,0,1,4.21,4.89Z"></path><path class="cls-17" d="M418.58,353.24a3.8,3.8,0,0,1-.22,1.64,3.88,3.88,0,0,1-.87,1.41,3.93,3.93,0,0,1-3,1.23,4.75,4.75,0,0,1-4.13-4.85,4,4,0,0,1,2.49-4,3.81,3.81,0,0,1,1.64-.28,4.73,4.73,0,0,1,4.08,4.85Z"></path><path class="cls-17" d="M404.53,352.26a4.12,4.12,0,0,1-.24,1.63,3.93,3.93,0,0,1-.87,1.4,3.93,3.93,0,0,1-3,1.22,4.69,4.69,0,0,1-4.09-4.83,3.94,3.94,0,0,1,.23-1.63,4.07,4.07,0,0,1,.87-1.4,4,4,0,0,1,1.37-.93,3.88,3.88,0,0,1,1.62-.29,4.69,4.69,0,0,1,3,1.62,4.82,4.82,0,0,1,1.12,3.21Z"></path><path class="cls-17" d="M390.6,351.27a4.07,4.07,0,0,1-.24,1.62,4,4,0,0,1-.86,1.38,4.08,4.08,0,0,1-1.35.93,4,4,0,0,1-1.6.3,4.67,4.67,0,0,1-4-4.8,4,4,0,0,1,.23-1.6,4,4,0,0,1,.85-1.38,4,4,0,0,1,2.9-1.25,4.68,4.68,0,0,1,4.05,4.8Z"></path><path class="cls-17" d="M378.23,350.42a4,4,0,0,1-1.09,3,4,4,0,0,1-2.9,1.25,4.67,4.67,0,0,1-4-4.78,3.92,3.92,0,0,1,.24-1.59,3.88,3.88,0,0,1,.85-1.38,3.93,3.93,0,0,1,1.32-.92,4,4,0,0,1,1.57-.32,4.65,4.65,0,0,1,4,4.77Z"></path><g class="cls-18"><path class="cls-17" d="M430.21,361.82h-.49a8.1,8.1,0,0,1-7.06-8.22,7,7,0,0,1,.44-2.83,6.83,6.83,0,0,1,1.53-2.4,7,7,0,0,1,5.19-2.07,8.06,8.06,0,0,1,7.11,8.2,7,7,0,0,1-6.72,7.32Zm-.83-14.22a5.72,5.72,0,0,0-2.16.53,5.61,5.61,0,0,0-2.92,3.25,5.52,5.52,0,0,0-.31,2.2,6.75,6.75,0,0,0,5.84,6.89c3.21.27,5.77-2.47,5.77-6a6.76,6.76,0,0,0-5.86-6.89Z"></path></g><path class="cls-9" d="M436.45,304.94c-.75-6.65-9.22-43.31-31.67-44-17.83-.54-26.91,23.32-31.76,23.77s-8.29-11.59-15.45-10.13-8.84,13-14.19,16.24-8.93.26-18.21-.77c-6.83-.78-12.4,5.47-14.82,8.76Z"></path><path class="cls-9" d="M449.74,315.58l-149.16-7.81v-66.1h.68L449.74,245Zm-147.83-9.07,146.5,7.67V246.37L301.91,243Z"></path><path class="cls-11" d="M384.19,81.85c-26.55,1.51-47.49,26.31-47.66,55.69l47.66-1.2Z"></path><path class="cls-9" d="M343.34,138.15c.19,25.11,18.23,45.41,40.85,45.53v-46.5Z"></path><path class="cls-9" d="M419.94,135.44c-.2-21.52-15.93-38.33-35.05-37.73v38.56Z"></path><path class="cls-11" d="M384.89,167.76c15.14-.38,27.56-14.32,27.75-31.35l-27.75.69Z"></path><path class="cls-9" d="M319.91,192.82a.68.68,0,0,1-.67-.67.71.71,0,0,1,.2-.47.67.67,0,0,1,.47-.19h2.4a.67.67,0,0,1,.67.66.68.68,0,0,1-.67.67Zm11.6,0a.67.67,0,0,1-.66-.67.65.65,0,0,1,.66-.66h2.4a.67.67,0,0,1,.67.66.68.68,0,0,1-.67.67Zm11.59,0a.65.65,0,0,1-.47-.2.67.67,0,0,1-.19-.47.7.7,0,0,1,.19-.47.68.68,0,0,1,.47-.19h2.36a.67.67,0,0,1,.67.66.74.74,0,0,1-.2.47.72.72,0,0,1-.47.2Zm11.6,0a.67.67,0,0,1-.66-.67.65.65,0,0,1,.66-.66h2.41a.65.65,0,0,1,.66.66.67.67,0,0,1-.66.67Zm11.61,0a.68.68,0,0,1-.67-.67.67.67,0,0,1,.67-.66h2.4a.68.68,0,0,1,.47.19.7.7,0,0,1,.19.47.67.67,0,0,1-.19.47.65.65,0,0,1-.47.2Zm11.59,0a.72.72,0,0,1-.47-.2.69.69,0,0,1-.2-.47.67.67,0,0,1,.67-.66h2.41a.67.67,0,0,1,.67.66.68.68,0,0,1-.67.67Zm11.6,0a.68.68,0,0,1-.67-.67.67.67,0,0,1,.67-.66h2.43a.65.65,0,0,1,.66.66.67.67,0,0,1-.66.67Zm11.6,0a.65.65,0,0,1-.47-.2.67.67,0,0,1-.19-.47.7.7,0,0,1,.19-.47.68.68,0,0,1,.47-.19h2.4a.67.67,0,0,1,.67.66.68.68,0,0,1-.67.67Zm11.59,0a.72.72,0,0,1-.46-.2.65.65,0,0,1-.2-.47.7.7,0,0,1,.19-.47.68.68,0,0,1,.47-.19h2.42a.65.65,0,0,1,.66.66.65.65,0,0,1-.2.47.72.72,0,0,1-.46.2Zm11.6,0a.67.67,0,0,1-.66-.67.65.65,0,0,1,.66-.66h2.41a.65.65,0,0,1,.66.66.67.67,0,0,1-.66.67Zm11.61,0a.68.68,0,0,1-.67-.67.67.67,0,0,1,.67-.66h2.4a.65.65,0,0,1,.66.66.65.65,0,0,1-.2.47.72.72,0,0,1-.46.2Zm5.82-4.06a.68.68,0,0,1-.66-.66v-2.42a.63.63,0,0,1,.2-.47.67.67,0,0,1,.46-.2.68.68,0,0,1,.67.67v2.42a.67.67,0,0,1-.22.43.63.63,0,0,1-.45.18Zm-125.06-3.31a.65.65,0,0,1-.47-.2.72.72,0,0,1-.2-.46v-2.4a.72.72,0,0,1,.2-.46.65.65,0,0,1,.47-.2.7.7,0,0,1,.47.19.67.67,0,0,1,.19.47v2.42a.67.67,0,0,1-.2.45.68.68,0,0,1-.46.19Zm125.06-8.38a.65.65,0,0,1-.66-.66V174a.65.65,0,0,1,.66-.66.67.67,0,0,1,.67.66v2.41a.72.72,0,0,1-.2.46A.68.68,0,0,1,441.72,177.07Zm-125.06-3.26a.67.67,0,0,1-.67-.66v-2.41a.67.67,0,0,1,.67-.66.65.65,0,0,1,.66.66v2.41a.6.6,0,0,1-.05.26.6.6,0,0,1-.36.36.57.57,0,0,1-.25.06Zm125.06-8.36a.65.65,0,0,1-.66-.66v-2.35a.65.65,0,0,1,.66-.66.67.67,0,0,1,.67.66v2.41a.69.69,0,0,1-.22.44.66.66,0,0,1-.45.17Zm-125.06-3.26a.67.67,0,0,1-.67-.66v-2.41a.77.77,0,0,1,.2-.47.68.68,0,0,1,.47-.19.66.66,0,0,1,.47.19.67.67,0,0,1,.19.47v2.41a.6.6,0,0,1-.05.26.74.74,0,0,1-.14.22.64.64,0,0,1-.22.14.57.57,0,0,1-.25.06Zm125.06-8.35a.68.68,0,0,1-.66-.66v-2.41a.67.67,0,0,1,.66-.67.68.68,0,0,1,.67.67v2.37a.84.84,0,0,1,0,.27.79.79,0,0,1-.14.23.62.62,0,0,1-.49.21Zm-125.06-3.26a.65.65,0,0,1-.47-.2.72.72,0,0,1-.2-.46v-2.41a.67.67,0,0,1,.67-.66.65.65,0,0,1,.66.66v2.41a.6.6,0,0,1-.05.26.74.74,0,0,1-.14.22.64.64,0,0,1-.22.14.57.57,0,0,1-.25.06Zm125.06-8.36a.67.67,0,0,1-.66-.67v-2.4a.67.67,0,0,1,.66-.67.68.68,0,0,1,.67.67v2.4a.75.75,0,0,1-.05.26.55.55,0,0,1-.14.22.54.54,0,0,1-.22.15.75.75,0,0,1-.26,0ZM316.66,139a.67.67,0,0,1-.67-.66v-2.45a.68.68,0,0,1,.67-.67.67.67,0,0,1,.66.67v2.41a.63.63,0,0,1,0,.27.79.79,0,0,1-.14.23.73.73,0,0,1-.23.16.58.58,0,0,1-.26.05Zm125.06-8.36a.67.67,0,0,1-.66-.67v-2.4a.67.67,0,0,1,1.33,0v2.4a.75.75,0,0,1-.05.26.64.64,0,0,1-.14.22.86.86,0,0,1-.22.15.75.75,0,0,1-.26.05Zm-125.06-3.25a.65.65,0,0,1-.47-.2.72.72,0,0,1-.2-.46v-2.41a.77.77,0,0,1,.2-.47.74.74,0,0,1,.47-.2.67.67,0,0,1,.66.67v2.42a.67.67,0,0,1-.19.47.7.7,0,0,1-.47.19ZM441.72,119a.72.72,0,0,1-.46-.2.63.63,0,0,1-.2-.47V115.9a.65.65,0,0,1,.66-.66.67.67,0,0,1,.67.66v2.41a.75.75,0,0,1,0,.26.91.91,0,0,1-.15.23.71.71,0,0,1-.22.15.75.75,0,0,1-.26,0Zm-125.06-3.26a.67.67,0,0,1-.67-.66v-2.41a.68.68,0,0,1,.67-.67.67.67,0,0,1,.66.67v2.41a.7.7,0,0,1-.19.47.54.54,0,0,1-.22.15.74.74,0,0,1-.25,0Zm125.06-8.37a.7.7,0,0,1-.47-.19.67.67,0,0,1-.19-.47v-2.41a.65.65,0,0,1,.66-.66.67.67,0,0,1,.67.66v2.41a.75.75,0,0,1-.05.26.64.64,0,0,1-.14.22.86.86,0,0,1-.22.15.75.75,0,0,1-.26,0Zm-125.06-3.25a.68.68,0,0,1-.67-.67V101a.68.68,0,0,1,.67-.67.67.67,0,0,1,.66.67v2.4a.58.58,0,0,1-.05.26.64.64,0,0,1-.14.22.54.54,0,0,1-.22.15.74.74,0,0,1-.25.05Zm125.06-8.35a.72.72,0,0,1-.46-.2.65.65,0,0,1-.2-.47V92.67a.68.68,0,0,1,.66-.66.67.67,0,0,1,.67.66v2.42a.75.75,0,0,1-.05.26.64.64,0,0,1-.14.22.86.86,0,0,1-.22.15.75.75,0,0,1-.26,0ZM316.66,92.5a.69.69,0,0,1-.47-.2.72.72,0,0,1-.2-.47V89.41a.72.72,0,0,1,.2-.46.65.65,0,0,1,.47-.2.65.65,0,0,1,.66.66v2.42a.58.58,0,0,1-.05.26.64.64,0,0,1-.14.22.54.54,0,0,1-.22.15.74.74,0,0,1-.25.05Zm125.06-8.37a.7.7,0,0,1-.47-.19.67.67,0,0,1-.19-.47V81.06a.65.65,0,0,1,.66-.66.67.67,0,0,1,.67.66v2.41a.75.75,0,0,1-.05.26.64.64,0,0,1-.14.22.86.86,0,0,1-.22.15.75.75,0,0,1-.26.05ZM316.66,80.88a.68.68,0,0,1-.67-.67V79.08a4.51,4.51,0,0,1,.24-1.46.9.9,0,0,1,.12-.24.87.87,0,0,1,.21-.17.72.72,0,0,1,.25-.07.63.63,0,0,1,.27,0,.76.76,0,0,1,.23.13.83.83,0,0,1,.16.21.58.58,0,0,1,.06.26.57.57,0,0,1,0,.26,3.39,3.39,0,0,0-.17,1v1.13a.58.58,0,0,1-.05.26.64.64,0,0,1-.14.22.86.86,0,0,1-.22.15.74.74,0,0,1-.25,0Zm8.24-5.12a.68.68,0,0,1-.45-.19.66.66,0,0,1-.21-.44.57.57,0,0,1,0-.26.64.64,0,0,1,.14-.22.65.65,0,0,1,.21-.16.57.57,0,0,1,.25-.06l2.41-.14a.74.74,0,0,1,.48.18.64.64,0,0,1,.21.46.68.68,0,0,1-.17.48.62.62,0,0,1-.46.21l-2.4.14Zm11.59-.63a.67.67,0,0,1-.47-.19.7.7,0,0,1-.19-.47A.67.67,0,0,1,336,74a.63.63,0,0,1,.47-.2l2.4-.13a.69.69,0,0,1,.49.17.69.69,0,0,1,.22.47.73.73,0,0,1,0,.25.68.68,0,0,1-.14.23.8.8,0,0,1-.21.15A.71.71,0,0,1,339,75l-2.4.13Zm11.58-.62a.65.65,0,0,1-.46-.18.66.66,0,0,1-.21-.45.71.71,0,0,1,.17-.48.67.67,0,0,1,.46-.22l2.4-.12a.58.58,0,0,1,.26,0,.8.8,0,0,1,.22.13.65.65,0,0,1,.16.21.57.57,0,0,1,.06.25.65.65,0,0,1-.17.48.7.7,0,0,1-.45.23l-2.4.12Zm11.57-.61a.79.79,0,0,1-.46-.19.69.69,0,0,1-.2-.45.75.75,0,0,1,0-.26.8.8,0,0,1,.13-.22.51.51,0,0,1,.21-.15.57.57,0,0,1,.25-.06l2.41-.14a.67.67,0,0,1,.66.67.65.65,0,0,1-.66.66l-2.41.14Zm11.59-.63a.63.63,0,0,1-.45-.18.65.65,0,0,1-.21-.44.57.57,0,0,1,0-.26.66.66,0,0,1,.34-.39.54.54,0,0,1,.25-.06l2.4-.13a.67.67,0,0,1,.49.17.69.69,0,0,1,.22.47.73.73,0,0,1,0,.25.64.64,0,0,1-.14.22.65.65,0,0,1-.21.16,1,1,0,0,1-.25.06l-2.4.13Zm11.58-.62a.66.66,0,0,1-.47-1.14.67.67,0,0,1,.47-.19l2.4-.12a.57.57,0,0,1,.26,0,.59.59,0,0,1,.23.13.8.8,0,0,1,.15.21.54.54,0,0,1,.06.25.62.62,0,0,1-.17.47.65.65,0,0,1-.45.22l-2.4.14Zm58.85-.12a.71.71,0,0,1-.39-.16.62.62,0,0,1-.22-.35,3.07,3.07,0,0,0-.92-1.69.6.6,0,0,1-.14-.21.57.57,0,0,1-.06-.25.58.58,0,0,1,.06-.26.6.6,0,0,1,.14-.21.67.67,0,0,1,.46-.22.65.65,0,0,1,.48.15,4.31,4.31,0,0,1,1.33,2.46.62.62,0,0,1,0,.27.52.52,0,0,1-.1.23.54.54,0,0,1-.19.18.82.82,0,0,1-.24.1ZM394.38,72a.64.64,0,0,1-.45-.18.69.69,0,0,1-.2-.44.75.75,0,0,1,0-.26.65.65,0,0,1,.13-.23.62.62,0,0,1,.21-.15.66.66,0,0,1,.25-.07l2.4-.12a.65.65,0,0,1,.48.17.67.67,0,0,1-.41,1.16l-2.41.12ZM406,71.41a.67.67,0,0,1-.66-.67.65.65,0,0,1,.66-.66l2.41-.13a.54.54,0,0,1,.25,0,.65.65,0,0,1,.23.13.62.62,0,0,1,.15.21.72.72,0,0,1,.07.25.65.65,0,0,1-.17.48.73.73,0,0,1-.46.23l-2.41.13Zm11.58-.63a.67.67,0,0,1-.47-.19.66.66,0,0,1-.19-.47.63.63,0,0,1,.19-.47.63.63,0,0,1,.47-.2l2.4-.13a.64.64,0,0,1,.48.18.62.62,0,0,1,.15.21.54.54,0,0,1,.06.25.52.52,0,0,1,0,.25.86.86,0,0,1-.13.23.8.8,0,0,1-.21.15.54.54,0,0,1-.25.06l-2.41.13Zm11.59-.62a.65.65,0,0,1-.46-.18.61.61,0,0,1-.2-.45.54.54,0,0,1,0-.25.65.65,0,0,1,.13-.23.83.83,0,0,1,.21-.16.71.71,0,0,1,.25-.06l2.4-.12a.74.74,0,0,1,.26,0,.64.64,0,0,1,.22.14.53.53,0,0,1,.16.2.57.57,0,0,1,.06.25.69.69,0,0,1-.17.48.7.7,0,0,1-.46.23l-2.4.12Z"></path><path class="cls-9" d="M204.84,85.05,186,86V82.57l18.89-1Z"></path><path class="cls-9" d="M204.84,94.36,186,95.25V88.32l18.89-1Z"></path><path class="cls-9" d="M204.84,103.67l-18.89.81V97.54l18.89-.88Z"></path><path class="cls-10" d="M265.21,81.63,214.4,84.28V76.69l50.81-2.83Z"></path><path class="cls-10" d="M265.21,96l-50.81,2.3V90.73l50.81-2.49Z"></path><path class="cls-10" d="M265.21,110.41l-50.81,2v-7.59l50.81-2.15Z"></path><path class="cls-10" d="M265.21,124.81l-50.81,1.62v-7.59L265.21,117Z"></path><path class="cls-10" d="M265.21,139.2l-50.81,1.28v-7.6l50.81-1.46Z"></path><path class="cls-10" d="M265.21,153.59l-50.81.94v-7.59l50.81-1.12Z"></path><path class="cls-10" d="M265.21,168l-50.81.6V161l50.81-.78Z"></path><path class="cls-10" d="M302.85,182.19l-88.45.44V175l88.45-.76Z"></path><path class="cls-10" d="M302.85,196.85l-88.45-.16v-7.6l88.45-.17Z"></path><path class="cls-10" d="M302.85,211.49l-88.45-.75v-7.59l88.45.42Z"></path><path class="cls-10" d="M302.85,226.13l-88.45-1.35V217.2l88.45,1Z"></path><path class="cls-10" d="M284.15,240.37l-69.75-1.53v-7.59l69.75,1.27Z"></path><path class="cls-10" d="M284.15,254.89l-69.75-2v-7.6L284.15,247Z"></path><path class="cls-10" d="M284.15,269.41,214.4,267v-7.59l69.75,2.21Z"></path><path class="cls-10" d="M284.15,283.93,214.4,281V273.4l69.75,2.69Z"></path><path class="cls-10" d="M284.15,298.45l-69.75-3.4v-7.59l69.75,3.15Z"></path><path class="cls-10" d="M284.15,313,214.4,309.1v-7.59l69.75,3.62Z"></path><path class="cls-10" d="M284.15,327.49l-69.75-4.34v-7.6l69.75,4.1Z"></path><path class="cls-10" d="M284.15,342,214.4,337.2v-7.59l69.75,4.56Z"></path><path class="cls-10" d="M351.81,352l-5.14-.36c0-13.73-9.77-25.48-21.65-26.2s-21.24,9.68-21.24,23.14l-4.93-.36c0-16.58,11.66-29.39,26.17-28.56S351.81,335,351.81,352Z"></path><path class="cls-9" d="M303.78,348.61l-4.93-.36c0-11.61,5.87-21.95,15-26.35l2.11,5.32C308.55,330.74,303.78,339.12,303.78,348.61Z"></path><path class="cls-9" d="M327.36,348.27,320.15,337a.9.9,0,0,0-.49-.41.89.89,0,0,0-.64,0,1,1,0,0,0-.42.54,1,1,0,0,0,0,.68h0c.57,2,1.84,6.65,3.69,13.13a2.63,2.63,0,0,0,.18.54,3,3,0,0,0,.63,1,2.85,2.85,0,0,0,1,.69,3,3,0,0,0,1.19.23,3,3,0,0,0,1.17-.28,3.46,3.46,0,0,0,1.22-4.47,2.8,2.8,0,0,0-.31-.5Zm-1.68,3.35a1.49,1.49,0,0,1-.55.14,1.55,1.55,0,0,1-.56-.11,1.29,1.29,0,0,1-.46-.33,1.31,1.31,0,0,1-.28-.5,1.62,1.62,0,0,1,.57-2.1,1.18,1.18,0,0,1,.55-.14,1.36,1.36,0,0,1,.56.11,1.26,1.26,0,0,1,.46.33,1.18,1.18,0,0,1,.28.5,1.56,1.56,0,0,1,.12,1.16,1.6,1.6,0,0,1-.69.94Z"></path><path class="cls-9" d="M423.15,87.34l-10.85.5-.07,0a.12.12,0,0,0-.05,0l0,.06a.17.17,0,0,0,0,.07v5.32a.15.15,0,0,0,0,.07.09.09,0,0,0,0,.06s0,0,.06,0l.06,0,4.13-.17a.14.14,0,0,1,.09,0,.13.13,0,0,1,.06.07l1,1.84a.16.16,0,0,0,.07.07.11.11,0,0,0,.08,0,.12.12,0,0,0,.09,0,.16.16,0,0,0,.07-.07l1-1.92a.18.18,0,0,1,.07-.08.14.14,0,0,1,.09,0l4.14-.17a.19.19,0,0,0,.12-.07.17.17,0,0,0,.05-.13V87.58a.15.15,0,0,0,0-.09.2.2,0,0,0,0-.08s0,0-.06-.06Z"></path><path class="cls-11" d="M428.78,162.29l-10.89.14-.06,0a.18.18,0,0,0-.1.1.15.15,0,0,0,0,.07v5.32a.2.2,0,0,0,0,.07.21.21,0,0,0,0,.06.09.09,0,0,0,.06,0H422a.11.11,0,0,1,.08,0,.11.11,0,0,1,.06.07l1,1.87a.13.13,0,0,0,.06.07.11.11,0,0,0,.08,0,.12.12,0,0,0,.09,0,.13.13,0,0,0,.06-.07l1-1.9a.13.13,0,0,1,.06-.07.15.15,0,0,1,.09,0h4.16a.21.21,0,0,0,.19-.19v-5.32a.21.21,0,0,0,0-.11.14.14,0,0,0,0-.11.18.18,0,0,0-.09-.08.17.17,0,0,0-.12,0Z"></path><path class="cls-9" d="M333,157.7l-10,.16-.07,0s0,0-.05,0l0,.06a.13.13,0,0,0,0,.06v5.14a.16.16,0,0,0,.16.17h3.8a.11.11,0,0,1,.08,0,.13.13,0,0,1,.06.07l.9,1.81.06.06.08,0,.08,0,.06-.06.92-1.84a.15.15,0,0,1,.05-.06.13.13,0,0,1,.08,0H333l.06,0,.06,0,0-.06a.15.15,0,0,0,0-.07V158a.24.24,0,0,0,0-.09.1.1,0,0,0,0-.09.13.13,0,0,0-.07-.06.1.1,0,0,0-.09,0Z"></path><path class="cls-11" d="M335.2,95.16l-10,.44a.15.15,0,0,0-.12.07.18.18,0,0,0,0,.13v5.13c0,.11,0,.19.16.17l3.81-.16a.19.19,0,0,1,.08,0,.18.18,0,0,1,.05.07l.92,1.78a.17.17,0,0,0,.06.06l.08,0,.08,0,.06-.06.91-1.86a.13.13,0,0,1,.06-.07.19.19,0,0,1,.08,0l3.83-.16a.17.17,0,0,0,.12-.06.18.18,0,0,0,0-.14V95.34s0,0,0-.06l0-.07-.06,0Z"></path><path class="cls-10" d="M302.85,167.55l-33.72.4V73.63l33.72-1.88Z"></path><path class="cls-10" d="M642.68,103.54l-52.8,1.87V97.49l52.8-2Z"></path><path class="cls-10" d="M642.68,116.74l-52.8,1.61v-7.93l52.8-1.77Z"></path><path class="cls-10" d="M642.68,130l-52.8,1.33v-7.93l52.8-1.5Z"></path><path class="cls-10" d="M642.68,143.18l-52.8,1V136.3l52.8-1.22Z"></path><path class="cls-10" d="M642.68,156.38l-52.8.77v-7.92l52.8-.93Z"></path><path class="cls-10" d="M642.68,169.6l-52.8.49v-7.93l52.8-.66Z"></path><path class="cls-10" d="M642.68,182.82l-52.8.21V175.1l52.8-.38Z"></path><path class="cls-10" d="M642.68,196l-52.8-.05V188l52.8-.1Z"></path><path class="cls-10" d="M642.68,209.24l-52.8-.33V201l52.8.16Z"></path><path class="cls-10" d="M642.68,222.46l-52.8-.63v-7.91l52.8.44Z"></path><path class="cls-10" d="M642.68,235.66l-52.8-.89v-7.92l52.8.73Z"></path><path class="cls-10" d="M642.68,248.88l-52.8-1.17v-7.93l52.8,1Z"></path><path class="cls-10" d="M642.68,262.1l-52.8-1.45v-7.93l52.8,1.28Z"></path><path class="cls-10" d="M642.68,275.3l-52.8-1.71v-7.93l52.8,1.56Z"></path><path class="cls-10" d="M642.68,288.52l-52.8-2V278.6l52.8,1.82Z"></path><path class="cls-10" d="M642.68,301.74l-52.8-2.29v-7.91l52.8,2.1Z"></path><path class="cls-10" d="M642.68,314.94l-52.8-2.55v-7.91l52.8,2.38Z"></path><path class="cls-10" d="M642.68,328.16l-52.8-2.83V317.4l52.8,2.68Z"></path><path class="cls-10" d="M642.68,341.38l-52.8-3.11v-7.93l52.8,2.94Z"></path><path class="cls-10" d="M642.68,354.58l-52.8-3.38v-7.92l52.8,3.22Z"></path><path class="cls-10" d="M642.68,367.8l-52.8-3.66v-7.92l52.8,3.49Z"></path><path class="cls-10" d="M642.68,381l-52.8-3.95v-7.91l52.8,3.76Z"></path><path class="cls-11" d="M520.22,114.67v45.57l-42.35.58c.27,24.24,18.8,43.88,42,43.88,23.77.08,43.37-20.35,43.37-45.65S543.82,114.15,520.22,114.67Z"></path><path class="cls-9" d="M477.86,160.29v.15l42-.59V114.64C496.5,115.38,477.86,135.85,477.86,160.29Z"></path><path class="cls-9" d="M567.16,214.17h-2.39a.65.65,0,0,1-.66-.66.67.67,0,0,1,.66-.67h2.39a3.41,3.41,0,0,0,1.91-.56,1.22,1.22,0,0,1,.24-.1.57.57,0,0,1,.26,0,.87.87,0,0,1,.24.1.81.81,0,0,1,.18.19.64.64,0,0,1,.09.5.69.69,0,0,1-.29.42,4.71,4.71,0,0,1-2.63.78Zm-11.59-.06h-2.41a.68.68,0,0,1-.67-.67.72.72,0,0,1,.2-.46.65.65,0,0,1,.47-.2h2.41a.67.67,0,0,1,.47.19.65.65,0,0,1,.2.47.68.68,0,0,1-.67.67ZM544,214h-2.42a.74.74,0,0,1-.25-.05.8.8,0,0,1-.21-.15.6.6,0,0,1-.14-.21.8.8,0,0,1-.05-.26.72.72,0,0,1,.2-.46.63.63,0,0,1,.47-.2H544a.63.63,0,0,1,.47.2.71.71,0,0,1,.19.48.64.64,0,0,1-.19.45.7.7,0,0,1-.46.2Zm-11.6,0H530a.67.67,0,0,1-.66-.67.68.68,0,0,1,.19-.47.7.7,0,0,1,.47-.19h2.42a.7.7,0,0,1,.47.19.68.68,0,0,1,.19.47.67.67,0,0,1-.66.67ZM520.78,214h-2.4a.75.75,0,0,1-.26-.05.51.51,0,0,1-.21-.15.6.6,0,0,1-.14-.21.75.75,0,0,1,0-.26.67.67,0,0,1,.67-.66h2.4a.67.67,0,0,1,.67.66.69.69,0,0,1-.22.43.68.68,0,0,1-.45.17Zm-11.61-.08h-2.4a.67.67,0,0,1-.66-.67.65.65,0,0,1,.66-.66h2.4a.67.67,0,0,1,.67.66.68.68,0,0,1-.21.43.66.66,0,0,1-.44.17Zm-11.6,0h-2.4a.65.65,0,0,1-.47-.2.66.66,0,0,1,0-.93.65.65,0,0,1,.47-.2h2.4a.8.8,0,0,1,.26,0,.58.58,0,0,1,.21.15.6.6,0,0,1,.14.21.55.55,0,0,1,0,.25.67.67,0,0,1-.22.38.7.7,0,0,1-.41.16ZM486,213.8h-2.45a.68.68,0,0,1-.67-.67.67.67,0,0,1,.67-.66h2.4a.68.68,0,0,1,.47.19.7.7,0,0,1,.19.47.67.67,0,0,1-.19.47.65.65,0,0,1-.47.2Zm-11.6-.07h-.24a4.46,4.46,0,0,1-2.4-.74.64.64,0,0,1-.28-.43.68.68,0,0,1,.09-.5.64.64,0,0,1,.42-.28.68.68,0,0,1,.5.09,3,3,0,0,0,1.68.53h.24a.58.58,0,0,1,.26.06.6.6,0,0,1,.21.14.64.64,0,0,1,.14.22.7.7,0,0,1,.05.25.73.73,0,0,1-.24.38.62.62,0,0,1-.42.15Zm97-8.64a.68.68,0,0,1-.47-.19.7.7,0,0,1-.19-.47V202a.67.67,0,0,1,.19-.47.65.65,0,0,1,.47-.2.63.63,0,0,1,.47.2.67.67,0,0,1,.19.47v2.42a.68.68,0,0,1-.21.4.71.71,0,0,1-.44.17Zm-101.12-.72a.65.65,0,0,1-.66-.66V201.3a.65.65,0,0,1,.2-.47.72.72,0,0,1,.46-.2.67.67,0,0,1,.47.2.65.65,0,0,1,.2.47v2.37a.75.75,0,0,1,0,.26.59.59,0,0,1-.14.23.82.82,0,0,1-.22.16A.86.86,0,0,1,470.25,204.37Zm101.13-11a.71.71,0,0,1-.47-.2.68.68,0,0,1-.19-.47v-2.41a.65.65,0,0,1,.66-.66.67.67,0,0,1,.67.66v2.41a.7.7,0,0,1,0,.25.71.71,0,0,1-.15.22.6.6,0,0,1-.21.14.58.58,0,0,1-.26.06Zm-101.13-.58a.66.66,0,0,1-.46-.19.67.67,0,0,1-.2-.47v-2.41a.68.68,0,0,1,.19-.47.7.7,0,0,1,.47-.19.67.67,0,0,1,.47.19.65.65,0,0,1,.2.47v2.41a.67.67,0,0,1-.67.66Zm101.13-11a.65.65,0,0,1-.66-.66v-2.41a.68.68,0,0,1,.19-.47.7.7,0,0,1,.47-.19.67.67,0,0,1,.47.19.65.65,0,0,1,.2.47v2.42a.7.7,0,0,1-.2.46.64.64,0,0,1-.47.19Zm-101.13-.57a.65.65,0,0,1-.66-.66v-2.41a.67.67,0,0,1,.66-.67.68.68,0,0,1,.67.67v2.41a.67.67,0,0,1-.67.66Zm101.13-11a.7.7,0,0,1-.47-.19.68.68,0,0,1-.19-.47V167a.67.67,0,0,1,.66-.67.68.68,0,0,1,.67.67v2.42a.7.7,0,0,1,0,.25.86.86,0,0,1-.15.22.6.6,0,0,1-.21.14.58.58,0,0,1-.26,0Zm-101.13-.57a.68.68,0,0,1-.66-.66v-2.44a.68.68,0,0,1,.66-.66.67.67,0,0,1,.67.66v2.42a.75.75,0,0,1-.05.26.55.55,0,0,1-.14.22.62.62,0,0,1-.22.15.75.75,0,0,1-.26.05Zm101.13-11.07a.71.71,0,0,1-.47-.2.67.67,0,0,1-.19-.47v-2.41a.65.65,0,0,1,.66-.66.67.67,0,0,1,.67.66v2.41a.63.63,0,0,1-.2.47A.67.67,0,0,1,571.38,158.46Zm-101.13-.55a.67.67,0,0,1-.66-.67v-2.4a.67.67,0,0,1,.66-.67.68.68,0,0,1,.67.67v2.4a.68.68,0,0,1-.67.67Zm101.13-11a.67.67,0,0,1-.47-.2.66.66,0,0,1-.19-.46v-2.37a.67.67,0,0,1,.66-.67.68.68,0,0,1,.67.67v2.41a.67.67,0,0,1-.67.62Zm-101.13-.57a.67.67,0,0,1-.66-.67v-2.4a.67.67,0,0,1,.66-.67.68.68,0,0,1,.67.67v2.4a.68.68,0,0,1-.67.67Zm101.13-11a.65.65,0,0,1-.66-.66v-2.42a.67.67,0,0,1,.66-.67.68.68,0,0,1,.67.67v2.42a.74.74,0,0,1,0,.25,1.07,1.07,0,0,1-.15.22.6.6,0,0,1-.21.14.75.75,0,0,1-.26.05Zm-101.13-.57a.67.67,0,0,1-.46-.2.63.63,0,0,1-.2-.47v-2.42a.68.68,0,0,1,.66-.66.67.67,0,0,1,.67.66V134a.68.68,0,0,1-.67.67Zm101.13-11.05a.67.67,0,0,1-.66-.67v-2.4a.67.67,0,0,1,.66-.67.68.68,0,0,1,.67.67V123a.75.75,0,0,1,0,.26.8.8,0,0,1-.15.21.62.62,0,0,1-.21.15.75.75,0,0,1-.26,0Zm-101.13-.57a.67.67,0,0,1-.66-.67V120a.65.65,0,0,1,.66-.67.67.67,0,0,1,.47.19.67.67,0,0,1,.2.48v2.4a.68.68,0,0,1-.67.67Zm101.13-11a.67.67,0,0,1-.66-.67v-2.23a.75.75,0,0,1,.17-.51.67.67,0,0,1,.45-.26.57.57,0,0,1,.26,0,.48.48,0,0,1,.22.12.58.58,0,0,1,.16.19.72.72,0,0,1,.07.25v2.43a.71.71,0,0,1-.41.62.75.75,0,0,1-.26.05Zm-100.89-.54a.49.49,0,0,1-.24,0,.71.71,0,0,1-.22-.13.86.86,0,0,1-.15-.22.54.54,0,0,1-.06-.25.58.58,0,0,1,.05-.26,4.9,4.9,0,0,1,1.6-2.21.67.67,0,0,1,.49-.14.66.66,0,0,1,.44.25.67.67,0,0,1,.14.49.69.69,0,0,1-.24.45,3.91,3.91,0,0,0-1.2,1.62.62.62,0,0,1-.22.28.52.52,0,0,1-.34.12Zm10.4-3a.74.74,0,0,1-.47-.2.7.7,0,0,1-.2-.46.73.73,0,0,1,0-.25.64.64,0,0,1,.14-.22.8.8,0,0,1,.21-.15.7.7,0,0,1,.25,0l2.4-.08a.57.57,0,0,1,.26,0,.64.64,0,0,1,.22.14.51.51,0,0,1,.15.21.57.57,0,0,1,.06.25.75.75,0,0,1,0,.26.64.64,0,0,1-.14.22.71.71,0,0,1-.22.15.66.66,0,0,1-.25.05l-2.4.1Zm11.59-.4a.68.68,0,0,1-.67-.67.67.67,0,0,1,.67-.66l2.4-.08a.6.6,0,0,1,.26,0,.64.64,0,0,1,.22.14.62.62,0,0,1,.15.21.58.58,0,0,1,.06.26.73.73,0,0,1,0,.25.64.64,0,0,1-.14.22.65.65,0,0,1-.21.16,1,1,0,0,1-.25.06l-2.41.08Zm11.58-.4a.68.68,0,0,1-.66-.67.67.67,0,0,1,.2-.47.66.66,0,0,1,.46-.19l2.41-.08a.65.65,0,0,1,.66.66.67.67,0,0,1-.66.67Zm11.59-.4a.68.68,0,0,1-.46-.19.67.67,0,0,1-.2-.45.69.69,0,0,1,.18-.47.67.67,0,0,1,.46-.22l2.41-.08a.67.67,0,0,1,.67.66.68.68,0,0,1-.67.67l-2.4.08Zm11.59-.39a.7.7,0,0,1-.47-.19.68.68,0,0,1-.19-.47.67.67,0,0,1,.66-.67l2.41-.08a.73.73,0,0,1,.25,0,.74.74,0,0,1,.22.14.8.8,0,0,1,.15.21.74.74,0,0,1,.05.25.57.57,0,0,1,0,.26.61.61,0,0,1-.13.22.62.62,0,0,1-.21.15.57.57,0,0,1-.25.06l-2.41.08Zm11.59-.4a.67.67,0,0,1-.46-.18.69.69,0,0,1-.2-.45.57.57,0,0,1,0-.26.68.68,0,0,1,.14-.23.8.8,0,0,1,.21-.15,1.1,1.1,0,0,1,.26-.06l2.4-.07a.57.57,0,0,1,.26,0,1,1,0,0,1,.22.14.6.6,0,0,1,.14.21.57.57,0,0,1,.06.25.75.75,0,0,1,0,.26.64.64,0,0,1-.14.22.51.51,0,0,1-.21.15.54.54,0,0,1-.25.06l-2.4.08Zm11.59-.4a.62.62,0,0,1-.46-.18.69.69,0,0,1-.2-.45.7.7,0,0,1,.18-.48.64.64,0,0,1,.47-.21l2.4-.08a.57.57,0,0,1,.26,0,.71.71,0,0,1,.22.13.62.62,0,0,1,.15.21.57.57,0,0,1,.06.25.66.66,0,0,1-.18.48.69.69,0,0,1-.47.22l-2.4.07Zm11.61-.38a.68.68,0,0,1-.47-.19.72.72,0,0,1-.2-.46.75.75,0,0,1,0-.26.6.6,0,0,1,.14-.21.51.51,0,0,1,.21-.15.54.54,0,0,1,.25-.06l2.4-.09a.67.67,0,0,1,.47.19.71.71,0,0,1,.2.47.67.67,0,0,1-.2.47.63.63,0,0,1-.47.2l-2.4.08Z"></path><path class="cls-19" d="M40.57,262.36H20.42a.37.37,0,0,0-.23.1.36.36,0,0,0-.09.24v9a.5.5,0,0,0,0,.12.36.36,0,0,0,.07.1.26.26,0,0,0,.11.07.24.24,0,0,0,.12,0H28.1a.27.27,0,0,1,.16,0,.34.34,0,0,1,.12.12l1.83,3.19a.34.34,0,0,0,.12.12.32.32,0,0,0,.16,0,.33.33,0,0,0,.17,0,.43.43,0,0,0,.11-.12l1.83-3.19a.34.34,0,0,1,.12-.12.32.32,0,0,1,.16,0h7.69a.3.3,0,0,0,.22-.1.32.32,0,0,0,.1-.22v-9a.42.42,0,0,0-.09-.24A.37.37,0,0,0,40.57,262.36Z"></path><path class="cls-20" d="M74.85,227H54.73l-.12,0a.41.41,0,0,0-.11.07.24.24,0,0,0-.06.11.17.17,0,0,0,0,.12v9a.32.32,0,0,0,.09.23.31.31,0,0,0,.22.09h7.69a.42.42,0,0,1,.16,0,.43.43,0,0,1,.11.12L64.53,240a.34.34,0,0,0,.12.12.28.28,0,0,0,.32,0,.34.34,0,0,0,.12-.12l1.83-3.19a.34.34,0,0,1,.12-.12.29.29,0,0,1,.16,0h7.69a.31.31,0,0,0,.22-.09.32.32,0,0,0,.09-.23v-9a.2.2,0,0,0,0-.13.44.44,0,0,0-.08-.11L75,227Z"></path><path class="cls-21" d="M107.53,191.43H87.38a.27.27,0,0,0-.12,0,.26.26,0,0,0-.11.07.36.36,0,0,0-.07.1.5.5,0,0,0,0,.12v9a.51.51,0,0,0,0,.13.36.36,0,0,0,.07.1.41.41,0,0,0,.11.07.25.25,0,0,0,.12,0h7.68a.34.34,0,0,1,.17,0,.29.29,0,0,1,.11.11l1.85,3.19a.43.43,0,0,0,.11.12.47.47,0,0,0,.16,0,.42.42,0,0,0,.16,0,.43.43,0,0,0,.11-.12l1.85-3.19a.32.32,0,0,1,.12-.11.3.3,0,0,1,.16,0h7.67a.32.32,0,0,0,.23-.09.33.33,0,0,0,.1-.23V191.7a.25.25,0,0,0-.12-.19.32.32,0,0,0-.21-.08Z"></path><path class="cls-22" d="M140.45,158.06H120.3a.31.31,0,0,0-.22.09.33.33,0,0,0-.1.23v9a.34.34,0,0,0,.32.32H128a.32.32,0,0,1,.16,0,.34.34,0,0,1,.12.12l1.83,3.19a.43.43,0,0,0,.11.12.33.33,0,0,0,.17,0,.32.32,0,0,0,.16,0,.34.34,0,0,0,.12-.12l1.83-3.19a.34.34,0,0,1,.12-.12.27.27,0,0,1,.16,0h7.68a.33.33,0,0,0,.23-.1.31.31,0,0,0,.09-.22v-9a.31.31,0,0,0-.32-.32Z"></path><path class="cls-10" d="M30.49,302.71c8.23,0,14.9-2.89,14.9-6.46s-6.67-6.47-14.9-6.47-14.89,2.9-14.89,6.47S22.27,302.71,30.49,302.71Z"></path><path class="cls-23" d="M30.49,302.71c-8.23,0-14.89-2.9-14.89-6.46v29.82c0,3.58,6.64,6.47,14.89,6.47s15-2.89,15-6.47V296.25C45.44,299.81,38.71,302.71,30.49,302.71Z"></path><path class="cls-10" d="M97.45,233.57c8.23,0,14.9-2.89,14.9-6.46s-6.67-6.46-14.9-6.46-14.89,2.89-14.89,6.46S89.23,233.57,97.45,233.57Z"></path><path class="cls-24" d="M97.45,233.57c-8.21,0-14.88-2.89-14.88-6.47v59.66c0,3.57,6.64,6.47,14.88,6.47s14.9-2.9,14.9-6.47V227.1C112.35,230.68,105.68,233.57,97.45,233.57Z"></path><path class="cls-10" d="M130.38,200.62c8.22,0,14.89-2.89,14.89-6.46s-6.67-6.46-14.89-6.46-14.9,2.89-14.9,6.46S122.15,200.62,130.38,200.62Z"></path><path class="cls-25" d="M130.4,200.62c-8.21,0-14.89-2.9-14.89-6.46v74.57c0,3.57,6.64,6.47,14.89,6.47s14.9-2.9,14.9-6.47V194.16C145.27,197.72,138.6,200.62,130.4,200.62Z"></path><path class="cls-10" d="M64.76,268c8.22,0,14.89-2.89,14.89-6.47s-6.67-6.46-14.89-6.46-14.9,2.9-14.9,6.46S56.53,268,64.76,268Z"></path><path class="cls-26" d="M64.77,268c-8.23,0-14.89-2.9-14.89-6.47v44.74c0,3.58,6.63,6.47,14.89,6.47s14.88-2.89,14.88-6.47V261.52C79.65,265.09,73,268,64.77,268Z"></path><path class="cls-27" d="M425.67,167.54c-1.32,1.13-5,5.5-5,5.5s4.94-8.23,5.41-9-.27-1.68-.9-1.45a5.19,5.19,0,0,1,.47-1c.64-.72-.7-1.88-2.24-.27s-6.43,8.18-7.19,8.13,3.12-8.11,3.65-9.6-1.25-1.78-3.91,2.41-5.75,10.29-7.14,11.54-2.28-.59-2.66-1.8-3.05-5.18-4.36-3.81.83,2.66.78,4.13a14.35,14.35,0,0,0,1,7.41c.57,1.33,1.17,2.51,1.72,3.52a6.73,6.73,0,0,0-1,1l-.65.89a2.69,2.69,0,0,0-1.69,1.13h0l-16.84,23-41.74.42h-.2a14.26,14.26,0,0,0-2.07.24c-2.56-1.7-8.85-5.14-19.12-6.49a9,9,0,0,0-4.78-5.77l-.9-3.87a17.89,17.89,0,0,0,9.39-21.27l-3.36-11.15a18,18,0,0,0-5.47-8.39l-.21-.58,2.73-1v-.08a8.33,8.33,0,0,0-10.62-5.05L298.61,150l-5.52,2a14.49,14.49,0,0,0-8.81,18.44l5.9,16.61a7.58,7.58,0,0,0,1.95,3,7.36,7.36,0,0,0,3.09,1.74c.59,2.58,1,4.54,1.48,6.41a4.86,4.86,0,0,0-4.22,5.22l.2,2.5c-15,4.6-22.35,13.16-23.32,14.91a1,1,0,0,0,0,.24,13.11,13.11,0,0,0-1.54,4s-4.4,20.08-8,36.16a11.43,11.43,0,0,0-.37,2.33,10.49,10.49,0,0,0,6.64,10.3l19.29,11.69c-.28,11.49-.61,25.27-.75,32.38a3.64,3.64,0,0,0,.59,2.1c-1.86,14-3.53,26.78-5.05,38.47l30.54,2.34c2.88-13.14,5.23-23.93,6.55-30,0,7.55.08,18.27.14,30.52l29.63,2.27c2.16-23.07,3.78-40.44,3.78-40.44l.09-1.07.11-1.24c0-.52.08-1.05.08-1.57a17.11,17.11,0,0,0-.35-3.42,3,3,0,0,0,.3-1.33c-.16-7.66-3.77-49.86-6.23-78h.58l46.79-6.28h.06a10.39,10.39,0,0,0,5.14-2.2,10.53,10.53,0,0,0,3.28-4.53,9.93,9.93,0,0,0,1.86-2.58c7.39-15,13.09-26.95,13.59-28.09a2.49,2.49,0,0,0,.12-1.15,2.38,2.38,0,0,0-.42-1.07,5.68,5.68,0,0,0,.31-1,7,7,0,0,0,.15-1.51,9.2,9.2,0,0,0,.49-.93c4.5-8.45,10.2-19.1,10.37-19.35S427,166.43,425.67,167.54Zm-143,92.89q.17-.4.3-.81l.63,1.53Z"></path><path class="cls-10" d="M766,482.16c-1-4.18-11.87-26.91-41.15-26.91-23.66,0-35.85,15.47-42.39,15.89s-11.29-7.26-21.08-6.15-12.18,8.65-19.6,10.92-12.46.43-25.53,0a37.89,37.89,0,0,0-21.08,6.24Z"></path><path class="cls-28" d="M352.55,506.49,445,510l34.24-30.77L407.9,477Z"></path><path class="cls-29" d="M353.56,501.65l92.41,3.5,34.24-30.77-69.6-2.9Z"></path><path class="cls-28" d="M302.61,518.81l92.41,3.5,34.24-30.77-71.3-2.2Z"></path><path class="cls-30" d="M303.62,514l92.41,3.5,34.24-30.77-69.59-2.9Z"></path><path class="cls-10" d="M295.83,490.5c40.81,0,73.9-7.94,73.9-17.74S336.64,455,295.83,455s-73.91,7.94-73.91,17.74S255,490.5,295.83,490.5Z"></path><path class="cls-31" d="M251,471.92v-6a2.12,2.12,0,0,1,.15-.78,2.27,2.27,0,0,1,.45-.66,2,2,0,0,1,.66-.44,2.08,2.08,0,0,1,.78-.15h13.13L266,461a1.08,1.08,0,0,1,.08-.53,1,1,0,0,1,1.39-.41l6.72,4.27a6.62,6.62,0,0,0,4.1,1.1l6.81-.33a2.77,2.77,0,0,1,2.89,2.58l.3,4.25Z"></path><path class="cls-32" d="M389.06,166.1a46.23,46.23,0,0,0,2.87,5.55c-1.25,2.08-4.32,7.87-3.2,5.77l8.64,4.89c.46-1.33,4.71-8.35,4.86-8.83,4.5-8.43,10.19-19.09,10.37-19.33s-.16-1.33-1.46-.26-5,5.5-5,5.5,4.94-8.24,5.4-9-.26-1.69-.89-1.46a4.49,4.49,0,0,1,.47-1c.63-.72-.71-1.87-2.25-.26s-6.42,8.19-7.19,8.12,3.12-8.11,3.65-9.6-1.25-1.77-3.9,2.42-5.75,10.28-7.15,11.53-2.28-.57-2.65-1.78-3.05-5.19-4.37-3.83.84,2.73.78,4.15a14.29,14.29,0,0,0,1,7.39Z"></path><path class="cls-10" d="M398.46,463.65c14.42,0,26.11-2.8,26.11-6.26s-11.69-6.27-26.11-6.27-26.11,2.81-26.11,6.27S384,463.65,398.46,463.65Z"></path><path class="cls-33" d="M290.73,159.45a10,10,0,0,0-11.67,8.13,10,10,0,0,0,.11,4.07h0l6.4,27.5v.09a10.05,10.05,0,0,0,19.58-4.58h0c-3.2-13.76-3.22-13.8-6.4-27.5v-.09a10.07,10.07,0,0,0-8-7.62Z"></path><path class="cls-34" d="M299.27,181.26l-.35.11A17.95,17.95,0,0,1,285.3,180a17.9,17.9,0,0,1-5.39-4.44,18.09,18.09,0,0,1-3.28-6.17l-3.36-11.14a17.91,17.91,0,0,1,12-22.32l.36-.1a17.88,17.88,0,0,1,22.28,12L311.21,159a17.9,17.9,0,0,1-11.94,22.3Z"></path><path class="cls-35" d="M278.52,138.31l5.52-2,10.19-3.63a8.33,8.33,0,0,1,10.63,5.06v.08l-2.74,1,3,8.56a7.15,7.15,0,0,1-3,8.52l-.12-.36a4,4,0,0,0-2-2.23,3.93,3.93,0,0,0-3-.16h-.08a4,4,0,0,0-2.23,2,4,4,0,0,0-.16,3l2.65,7.53a7.51,7.51,0,0,1-.29,5.76,7.57,7.57,0,0,1-1.75,2.37,7.8,7.8,0,0,1-2.52,1.51L285.23,178a7.51,7.51,0,0,1-5.76-.29,7.44,7.44,0,0,1-2.36-1.76,7.32,7.32,0,0,1-1.51-2.53l-5.8-16.63a14.48,14.48,0,0,1,8.72-18.5Z"></path><path class="cls-36" d="M308.11,195.26l-29.53,2.44-.63-8a4.94,4.94,0,0,1,.19-1.91,5.1,5.1,0,0,1,.92-1.68,4.93,4.93,0,0,1,1.49-1.2,4.81,4.81,0,0,1,1.84-.53L298,183.07a9.07,9.07,0,0,1,9.78,8.31Z"></path><path class="cls-37" d="M309.29,470.17a6.92,6.92,0,0,1-4.21-7.32l7.53-56.73A6.9,6.9,0,1,1,326.29,408l-7.52,56.72a7.07,7.07,0,0,1-.87,2.56,7.2,7.2,0,0,1-1.78,2,6.89,6.89,0,0,1-5.11,1.36,6.82,6.82,0,0,1-1.72-.45Z"></path><path class="cls-38" d="M303.22,471.92v-6a2,2,0,0,1,.6-1.43,2,2,0,0,1,1.43-.6H318.4l-.14-2.81a1,1,0,0,1,.09-.53.91.91,0,0,1,.35-.4,1,1,0,0,1,.52-.16,1,1,0,0,1,.52.15l6.71,4.27a6.65,6.65,0,0,0,4.11,1.1l6.81-.33a2.77,2.77,0,0,1,2.89,2.58l.29,4.25Z"></path><path class="cls-39" d="M298.12,270l-36.29-28a10.48,10.48,0,0,0-12-.56,10.55,10.55,0,0,0-4.69,6.86,10.57,10.57,0,0,0,1.76,8.11,10.52,10.52,0,0,0,3.1,2.88L289.23,283a7.89,7.89,0,0,0,4.82,1,8,8,0,0,0,6.4-11.22,7.88,7.88,0,0,0-2.33-2.83Z"></path><path class="cls-39" d="M278.78,219a13.69,13.69,0,0,0,.89-4.14,13.38,13.38,0,0,0-26.44-3.56l-8,36.87a10.24,10.24,0,0,0,1.93,8.61,10.48,10.48,0,0,0,18.09-2.62h0v-.1C271.12,238.79,271.19,238.71,278.78,219Z"></path><path class="cls-37" d="M256.32,468.2a6.92,6.92,0,0,1-4.2-7.3l7.53-56.73a6.94,6.94,0,0,1,2.65-4.58,6.84,6.84,0,0,1,2.42-1.19,6.92,6.92,0,0,1,2.68-.17,6.94,6.94,0,0,1,4.58,2.65,6.89,6.89,0,0,1,1.36,5.11l-7.53,56.73a6.92,6.92,0,0,1-6.4,6,7,7,0,0,1-3.09-.51Z"></path><path class="cls-35" d="M321.89,463.11c.65-7.48,14.32-153.59,14.32-153.59l.09-1.08.11-1.24c0-.52.08-1,.08-1.57a16.94,16.94,0,1,0-33.88,0s.69,152.06.61,157.82S321.22,470.58,321.89,463.11Z"></path><path class="cls-35" d="M270.18,464.87C272.46,455.7,303.81,312,303.81,312l.57-2.66a17,17,0,0,0-2.54-13,16.69,16.69,0,0,0-4.84-4.74,16.93,16.93,0,0,0-26,12l-.18,1.45C254.33,430.22,251.48,460.07,251,465.42,250.53,471.27,268.6,471.2,270.18,464.87Z"></path><path class="cls-36" d="M377.88,208.63a9.18,9.18,0,0,1-5.31-14.35l.95-1.33,16.34-22.34a6.64,6.64,0,0,1,11.77,5.32,7,7,0,0,1-.52,1.45l-.51,1.06-11.8,23.94-.66,1.33a9.09,9.09,0,0,1-10.26,4.92Z"></path><path class="cls-39" d="M386.82,205.88a10.5,10.5,0,0,0-10.62-10.23h0l-47.36.48h-.2a13.38,13.38,0,0,0-13,13.75,13.21,13.21,0,0,0,1.15,5.1,13.42,13.42,0,0,0,7.43,7.07,13.49,13.49,0,0,0,5.14.89,6.23,6.23,0,0,0,1.43-.11l46.87-6.28h.07a10.48,10.48,0,0,0,9.12-10.67Z"></path><path class="cls-39" d="M401.58,179.13c1.72-4-11.51-10.51-14.1-6.45v.07l-17.26,23.6a10.4,10.4,0,0,0-2,4,10.45,10.45,0,0,0,1.48,8.51,10.54,10.54,0,0,0,7.35,4.51A10.48,10.48,0,0,0,388,207.23C395.38,192.22,401.08,180.28,401.58,179.13Z"></path><path class="cls-39" d="M254.82,207.19c1.23-2.23,12.66-15.42,37.17-17.57s36,7.72,36,7.72,8.25,91.83,8.49,103.52-66.62,16.86-66.38,3.42,1.21-51.17,1.21-51.17S253.37,209.81,254.82,207.19Z"></path><path class="cls-40" d="M100,532.89c22.33,0,40.43-5.92,40.43-13.23s-18.1-13.23-40.43-13.23-40.42,5.92-40.42,13.23S77.68,532.89,100,532.89Z"></path><path class="cls-41" d="M97.45,529.91c22.33,0,40.43-5.92,40.43-13.23s-18.1-13.23-40.43-13.23S57,509.37,57,516.68,75.13,529.91,97.45,529.91Z"></path><path class="cls-11" d="M97.45,528.33c-19.19,0-34.23-5.12-34.23-11.66S78.26,505,97.45,505s34.26,5.12,34.26,11.65S116.66,528.33,97.45,528.33Zm0-22c-19.68,0-32.91,5.32-32.91,10.32S77.82,527,97.45,527s32.93-5.32,32.93-10.33S117.13,506.35,97.45,506.35Z"></path><path class="cls-28" d="M97.45,523.42c11.39,0,20.62-3,20.62-6.74s-9.23-6.74-20.62-6.74-20.61,3-20.61,6.74S86.07,523.42,97.45,523.42Z"></path><path class="cls-42" d="M99.1,520.78h-.76C77.69,520.78,61,504.55,61,484.54V444.06h75.52v40.48C136.48,504.55,119.78,520.78,99.1,520.78Z"></path><path class="cls-9" d="M98.72,453.12c20.85,0,37.76-4.05,37.76-9S119.57,435,98.72,435,61,439.08,61,444.08,77.86,453.12,98.72,453.12Z"></path><path class="cls-43" d="M135.24,444.08c0,2.08-5.66,4.7-15.64,6.31l-1,.16c-1.94.29-4,.55-6.26.75l-1.07.1c-3.06.26-6.41.43-10,.48H98.72A137.69,137.69,0,0,1,82.61,451a9.12,9.12,0,0,1-1-.12c-12.29-1.51-19.38-4.5-19.38-6.84,0-2.13,5.87-4.8,16.18-6.41l1-.15a136,136,0,0,1,19.34-1.33h5.23a128.73,128.73,0,0,1,12.87,1h.35l.71.09h.3C129.08,439.13,135.24,441.89,135.24,444.08Z"></path><path class="cls-44" d="M117.27,440.22c2.33,2.74,23-.27,34.28-7.55s10.62-12.58,15.18-17.53,11.8-6.36,15.92-12.93c6-9.52,5.32-27.67.59-28.84-3.48-.86-6.45,10-16.94,12.2s-22.9.62-35.46,11.87C119.62,407.53,112.79,434.93,117.27,440.22Z"></path><path class="cls-9" d="M112.34,451.3c.53-1.75,1.07-3.43,1.64-5a72.64,72.64,0,0,1,3.29-7.64q.28-.59.6-1.17a4.82,4.82,0,0,1,.27-.5c13.74-26,39.74-38.57,51.53-44.2,1.46-.71,2.66-1.33,3.59-1.77a19,19,0,0,0,10.51-17.69.5.5,0,0,0-.54-.45.6.6,0,0,0-.19.06.57.57,0,0,0-.15.12.56.56,0,0,0-.09.17.62.62,0,0,0,0,.19,18,18,0,0,1-10,16.72c-.9.47-2.1,1.05-3.56,1.76-11.66,5.61-37.17,17.87-51.23,43.23-.31.53-.6,1.07-.87,1.63l-.32.59a77.34,77.34,0,0,0-3.76,8.61c-.62,1.71-1.22,3.54-1.78,5.44Z"></path><path class="cls-9" d="M178.79,388.81a18.52,18.52,0,0,1-2.23-.12.52.52,0,0,1-.33-.18.55.55,0,0,1-.1-.37.49.49,0,0,1,.19-.33.47.47,0,0,1,.36-.1c.07,0,6.64.75,10-2a.5.5,0,0,1,.34-.07.47.47,0,0,1,.31.18.5.5,0,0,1,.12.33.57.57,0,0,1-.13.33C184.9,388.51,181.15,388.81,178.79,388.81Z"></path><path class="cls-9" d="M163.13,396a.43.43,0,0,1-.25-.07.55.55,0,0,1-.19-.18c-2.26-4.15.84-9.72,1-10a.44.44,0,0,1,.12-.15l.18-.09a.55.55,0,0,1,.38.05.5.5,0,0,1,.23.3.5.5,0,0,1,0,.38s-3,5.32-1,9a.5.5,0,0,1,0,.38.5.5,0,0,1-.23.3.69.69,0,0,1-.24.05Z"></path><path class="cls-9" d="M181.1,397.49c-6.48,0-13-3.85-13.27-4.05a.64.64,0,0,1-.15-.13.53.53,0,0,1-.08-.17.45.45,0,0,1,0-.2.5.5,0,0,1,.19-.33.37.37,0,0,1,.18-.08.41.41,0,0,1,.19,0,.4.4,0,0,1,.18.07c.11,0,9.73,5.76,16.85,3.27a.58.58,0,0,1,.19,0,.41.41,0,0,1,.19.05.57.57,0,0,1,.16.11,1,1,0,0,1,.1.17.53.53,0,0,1,0,.39.46.46,0,0,1-.28.25,13.21,13.21,0,0,1-4.41.69Z"></path><path class="cls-9" d="M141.54,409.53a.57.57,0,0,1-.25-.08.58.58,0,0,1-.19-.19c-4.36-8.08,2.9-19.68,3.22-20.17a.45.45,0,0,1,.31-.21.5.5,0,0,1,.38.06.54.54,0,0,1,.21.31.48.48,0,0,1-.07.37c-.06.12-7.26,11.6-3.17,19.16a.56.56,0,0,1,0,.38.48.48,0,0,1-.24.3.67.67,0,0,1-.24.07Z"></path><path class="cls-9" d="M171.26,410.31a33,33,0,0,1-20.68-7.54.52.52,0,0,1,0-.65.52.52,0,0,1,.31-.16.57.57,0,0,1,.34.08,31.79,31.79,0,0,0,23,7.13.52.52,0,0,1,.36.11.53.53,0,0,1,.19.33.62.62,0,0,1,0,.19.56.56,0,0,1-.09.17.47.47,0,0,1-.15.13.37.37,0,0,1-.18,0,28.38,28.38,0,0,1-3.06.16Z"></path><path class="cls-9" d="M152.23,423.46c-13.07,0-19.56-6.48-19.64-6.57a.51.51,0,0,1-.11-.34.49.49,0,0,1,.15-.33.53.53,0,0,1,.34-.15.54.54,0,0,1,.34.12c.09.11,9.63,9.58,29,5.05h.2a.55.55,0,0,1,.18.06.38.38,0,0,1,.14.14.37.37,0,0,1,.08.18.41.41,0,0,1,0,.19.6.6,0,0,1-.06.19.62.62,0,0,1-.14.14.36.36,0,0,1-.18.07,44.19,44.19,0,0,1-10.3,1.25Z"></path><path class="cls-9" d="M127.22,423.23a.56.56,0,0,1-.39-.18c-7.18-8.31,0-21.67.31-22.25a.49.49,0,0,1,.11-.18.58.58,0,0,1,.18-.11.41.41,0,0,1,.22,0,.36.36,0,0,1,.2.06.46.46,0,0,1,.17.14.41.41,0,0,1,.08.19.41.41,0,0,1,0,.22.34.34,0,0,1-.09.19c-.08.14-7.15,13.3-.42,21.12a.57.57,0,0,1,.11.16.65.65,0,0,1,0,.19.58.58,0,0,1,0,.19.5.5,0,0,1-.11.17.56.56,0,0,1-.17.09.46.46,0,0,1-.2,0Z"></path><path class="cls-9" d="M141,435.33a42.51,42.51,0,0,1-18.58-4.14.51.51,0,0,1-.19-.3.45.45,0,0,1,0-.34.5.5,0,0,1,.62-.24A42,42,0,0,0,151.38,433a.62.62,0,0,1,.19,0,.6.6,0,0,1,.19.06.47.47,0,0,1,.15.13.49.49,0,0,1,.08.18.62.62,0,0,1,0,.19.6.6,0,0,1-.06.19.86.86,0,0,1-.13.14.51.51,0,0,1-.18.09,41.78,41.78,0,0,1-10.62,1.4Z"></path><path class="cls-39" d="M69.68,417.39s.88-23.11-10.06-33.87c-9-8.83-21.83-12.57-28-15C22.24,364.74,5,355,2.62,347.3c-1-3.14-5.9,9.8.95,28.12C20.11,419.62,65.18,421.75,69.68,417.39Z"></path><path class="cls-9" d="M82.61,451a9.12,9.12,0,0,1-1-.12c-.37-1.78-.78-3.63-1.23-5.5-.61-2.54-1.22-5.12-2-7.75-4-14.24-11.51-29.91-39.65-46.35C9.31,374.1,1.54,347.75,1.54,347.48a.51.51,0,0,1,.08-.34.54.54,0,0,1,.28-.21.52.52,0,0,1,.6.27c.08.27,7.7,26.25,36.74,43.22,28.56,16.7,36.11,32.66,40.13,47.1.73,2.66,1.33,5.16,1.94,7.67C81.79,447.19,82.23,449.14,82.61,451Z"></path><path class="cls-9" d="M23.4,379.89a.5.5,0,0,1-.26-.08.47.47,0,0,1-.17-.2c-3.39-6.74-.45-14.95-.34-15.29a.51.51,0,0,1,.27-.25.49.49,0,0,1,.63.23.5.5,0,0,1,0,.36c0,.08-2.91,8.15.28,14.5a.55.55,0,0,1,0,.38.48.48,0,0,1-.25.29.46.46,0,0,1-.23.06Z"></path><path class="cls-9" d="M13.58,369.09a.57.57,0,0,1-.28-.08.46.46,0,0,1-.18-.23c-1.84-4.52-1-10.5-1-10.75a.51.51,0,0,1,.19-.33.52.52,0,0,1,.38-.1.48.48,0,0,1,.32.2.51.51,0,0,1,.1.36c0,.07-.83,6,.91,10.24a.55.55,0,0,1,0,.38.51.51,0,0,1-.27.27A.43.43,0,0,1,13.58,369.09Z"></path><path class="cls-9" d="M39,391.38a.45.45,0,0,1-.25-.07.58.58,0,0,1-.18-.17c-5.06-8.38-1.64-20.08-1.5-20.57a.51.51,0,0,1,.09-.18.44.44,0,0,1,.15-.12.7.7,0,0,1,.19-.06.68.68,0,0,1,.2,0,.56.56,0,0,1,.17.09.44.44,0,0,1,.12.15.55.55,0,0,1,.06.18.68.68,0,0,1,0,.2c0,.11-3.44,11.78,1.32,19.77a.51.51,0,0,1,.07.38.5.5,0,0,1-.22.31.48.48,0,0,1-.2.07Z"></path><path class="cls-9" d="M52,399.93a.54.54,0,0,1-.28-.08.6.6,0,0,1-.19-.23A20.37,20.37,0,0,1,54,378.85a.5.5,0,0,1,.33-.12.52.52,0,0,1,.33.12.53.53,0,0,1,.17.31.51.51,0,0,1-.08.34,19.4,19.4,0,0,0-2.33,19.72.53.53,0,0,1,0,.39.57.57,0,0,1-.27.28.39.39,0,0,1-.18,0Z"></path><path class="cls-9" d="M63.38,410a.47.47,0,0,1-.31-.11.46.46,0,0,1-.17-.28,13.77,13.77,0,0,1,4-12.6.49.49,0,0,1,.35-.15.47.47,0,0,1,.35.15.5.5,0,0,1,.14.35.52.52,0,0,1-.14.35A13,13,0,0,0,64,409.33a.49.49,0,0,1-.08.37.48.48,0,0,1-.31.23Z"></path><path class="cls-9" d="M17,373.29l-.18,0a.49.49,0,0,1-.15-.1c-5.56-5-14.6-2.53-14.6-2.5a.45.45,0,0,1-.2,0,.32.32,0,0,1-.18-.06.44.44,0,0,1-.15-.12.37.37,0,0,1-.08-.18.41.41,0,0,1,0-.19.6.6,0,0,1,.06-.19.57.57,0,0,1,.13-.14.56.56,0,0,1,.17-.09c.39-.1,9.61-2.66,15.57,2.66a.42.42,0,0,1,.11.16.43.43,0,0,1,0,.19.38.38,0,0,1,0,.19.39.39,0,0,1-.11.17.46.46,0,0,1-.15.16.43.43,0,0,1-.22.06Z"></path><path class="cls-9" d="M8.62,386.72a.48.48,0,0,1-.26-.07.45.45,0,0,1-.18-.18.5.5,0,0,1,0-.38.51.51,0,0,1,.24-.3c.38-.21,9.56-5.25,20-2.66a.71.71,0,0,1,.18.08.57.57,0,0,1,.13.14.44.44,0,0,1,.07.19.41.41,0,0,1,0,.19.37.37,0,0,1-.08.18.44.44,0,0,1-.14.13.43.43,0,0,1-.18.06.45.45,0,0,1-.2,0c-10-2.42-19.19,2.59-19.29,2.66a.31.31,0,0,1-.23,0Z"></path><path class="cls-9" d="M19,400.47a.54.54,0,0,1-.22-.05.59.59,0,0,1-.18-.13.56.56,0,0,1-.11-.37.58.58,0,0,1,.19-.34c.1-.08,11.2-8.81,24.66-6.65a.56.56,0,0,1,.33.21.57.57,0,0,1,.09.38.52.52,0,0,1-.58.4c-13-2.12-23.77,6.33-23.89,6.42A.51.51,0,0,1,19,400.47Z"></path><path class="cls-9" d="M38.8,414.12a.49.49,0,0,1-.34-.14.51.51,0,0,1,0-.7c.4-.43,9.86-10.32,21.08-8.18a.42.42,0,0,1,.21.06.51.51,0,0,1,.16.13.55.55,0,0,1,.1.41.5.5,0,0,1-.08.2,1.07,1.07,0,0,1-.16.14.48.48,0,0,1-.2.07.53.53,0,0,1-.22,0c-10.62-2-20.08,7.78-20.17,7.88a.66.66,0,0,1-.17.12.52.52,0,0,1-.21,0Z"></path><path class="cls-39" d="M121.11,394.71s-6.52-22.24,1.47-35.22c6.55-10.64,18.13-17.22,23.49-21,8.23-5.83,22.63-19.26,23-27.27.14-3.29,8.12,8.15,5.95,27.52C169.78,385.49,126.5,397.81,121.11,394.71Z"></path><path class="cls-9" d="M119.6,450.39c-.52-3.52-1-7.87-1.42-12.84V437c0-.61-.1-1.22-.14-1.86-.22-3.34-.37-6.93-.42-10.72-.21-16.66-.45-35.55,27.17-62.13,24.32-23.47,25.44-50.9,25.44-51.13a.63.63,0,0,0,0-.19.44.44,0,0,0-.1-.16.42.42,0,0,0-.16-.11.41.41,0,0,0-.19,0,.46.46,0,0,0-.2,0,.42.42,0,0,0-.17.1.36.36,0,0,0-.11.16.45.45,0,0,0,0,.2c0,.26-1,27.26-25.1,50.42-27.88,26.87-27.69,46-27.48,62.86,0,4.4.25,8.55.54,12.35v.63c0,.42.07.85.11,1.33.37,4.56.86,8.57,1.33,11.87Z"></path><path class="cls-9" d="M156.73,347.65h-.12a.5.5,0,0,1-.31-.22.49.49,0,0,1-.06-.37c1.52-6.91-3.24-14.09-3.28-14.15a.51.51,0,0,1-.08-.38.49.49,0,0,1,.21-.31.46.46,0,0,1,.37-.08.47.47,0,0,1,.32.21c.2.3,5.06,7.59,3.43,14.92a.57.57,0,0,1-.17.28.5.5,0,0,1-.31.1Z"></path><path class="cls-9" d="M163.59,334.89a.55.55,0,0,1-.18-.06.64.64,0,0,1-.15-.13.37.37,0,0,1-.08-.18.41.41,0,0,1,0-.19c.65-4.55-1.61-10.09-1.62-10.16a.41.41,0,0,1,0-.19.63.63,0,0,1,0-.19.46.46,0,0,1,.11-.16.42.42,0,0,1,.16-.11.5.5,0,0,1,.38,0,.51.51,0,0,1,.27.27c.1.24,2.38,5.86,1.69,10.64a.41.41,0,0,1-.05.19.48.48,0,0,1-.31.25A.44.44,0,0,1,163.59,334.89Z"></path><path class="cls-9" d="M144.41,362.4a.38.38,0,0,1-.15,0,.56.56,0,0,1-.17-.09.53.53,0,0,1-.12-.14.6.6,0,0,1-.06-.19.62.62,0,0,1,0-.19c2.74-8.9-3.42-19.44-3.48-19.53a.53.53,0,0,1,0-.39.48.48,0,0,1,.41-.37.41.41,0,0,1,.19,0,.38.38,0,0,1,.17.08.37.37,0,0,1,.13.15c.27.45,6.45,11,3.59,20.34a.57.57,0,0,1-.19.24.6.6,0,0,1-.29.08Z"></path><path class="cls-9" d="M133.87,373.69h-.08a.46.46,0,0,1-.32-.2.49.49,0,0,1-.09-.37,19.64,19.64,0,0,0-7.09-18.62.42.42,0,0,1-.16-.13.58.58,0,0,1-.1-.19.54.54,0,0,1,0-.22.46.46,0,0,1,.08-.19.54.54,0,0,1,.15-.15.68.68,0,0,1,.2-.07.78.78,0,0,1,.22,0,.67.67,0,0,1,.18.11,20.72,20.72,0,0,1,7.53,19.6.51.51,0,0,1-.19.3.44.44,0,0,1-.33.11Z"></path><path class="cls-9" d="M125.25,386.07a.49.49,0,0,1-.34-.14.53.53,0,0,1-.15-.34,13.25,13.25,0,0,0-1.91-6,13.42,13.42,0,0,0-4.47-4.46.49.49,0,0,1-.24-.29.46.46,0,0,1,0-.38.44.44,0,0,1,.12-.15.37.37,0,0,1,.17-.1.4.4,0,0,1,.19,0,.3.3,0,0,1,.18.06,13.95,13.95,0,0,1,6.92,11.31.69.69,0,0,1,0,.2.54.54,0,0,1-.1.16.61.61,0,0,1-.16.12.58.58,0,0,1-.19,0Z"></path><path class="cls-9" d="M161.34,339.77a.54.54,0,0,1-.28-.08.47.47,0,0,1-.14-.14.64.64,0,0,1-.08-.19.41.41,0,0,1,0-.19.62.62,0,0,1,.07-.19c4.49-6.64,14.08-6.23,14.47-6.22a.58.58,0,0,1,.19,0,.48.48,0,0,1,.16.12.37.37,0,0,1,.1.17.31.31,0,0,1,0,.19.44.44,0,0,1-.16.34.52.52,0,0,1-.36.14c-.09,0-9.44-.35-13.6,5.8a.52.52,0,0,1-.18.15A.49.49,0,0,1,161.34,339.77Z"></path><path class="cls-9" d="M153,352.8a.52.52,0,0,1-.25-.07.69.69,0,0,1-.19-.19.58.58,0,0,1,0-.39.46.46,0,0,1,.24-.29c9.51-4.84,19.72-2.06,20.13-1.92a.51.51,0,0,1,.18.09.86.86,0,0,1,.13.14.7.7,0,0,1,.06.19.62.62,0,0,1,0,.19.51.51,0,0,1-.09.18.86.86,0,0,1-.14.13.6.6,0,0,1-.19.06.62.62,0,0,1-.19,0c-.11,0-10.21-2.79-19.38,1.87a.42.42,0,0,1-.27,0Z"></path><path class="cls-9" d="M166.06,366.64a.37.37,0,0,1-.21,0c-.12,0-12.64-5.79-24.77-.74a.65.65,0,0,1-.19,0,.41.41,0,0,1-.19,0,.53.53,0,0,1-.27-.27.41.41,0,0,1,0-.19.43.43,0,0,1,0-.19.54.54,0,0,1,.1-.16.57.57,0,0,1,.16-.11c12.55-5.22,25.45.69,25.58.76a.43.43,0,0,1,.25.23.49.49,0,0,1-.14.61.46.46,0,0,1-.32.1Z"></path><path class="cls-9" d="M150.13,384.52a.47.47,0,0,1-.26-.08c-.12-.08-11.67-7.44-21.54-3a.41.41,0,0,1-.19,0,.32.32,0,0,1-.19,0,.54.54,0,0,1-.16-.1.57.57,0,0,1-.11-.16.5.5,0,0,1,0-.38.49.49,0,0,1,.25-.28c10.37-4.65,22,2.77,22.49,3.09a.47.47,0,0,1,.21.31.5.5,0,0,1-.06.38.58.58,0,0,1-.19.16.67.67,0,0,1-.24.07Z"></path><path class="cls-44" d="M63.62,318s13,23.63,23.55,32.46c13.91,11.67,28.74,38,22.39,65.95-3.37,14.83-11.07,18.1-11.07,18.1s-7.13-20.92-14.32-28.54-15.1-14.37-17.38-33.08S63.62,318,63.62,318Z"></path><path class="cls-9" d="M96.54,452.33a151.42,151.42,0,0,0,2.65-15.54,99,99,0,0,0-.82-31.21c-3.16-15.31-11-26.9-18.51-38.11a145.81,145.81,0,0,1-11-18.11c-8.16-17.05-5.48-51.36-5.45-51.71a.68.68,0,0,0,0-.19.51.51,0,0,0-.09-.16.44.44,0,0,0-.15-.12.64.64,0,0,0-.18-.06l-.2,0-.16.1a.44.44,0,0,0-.12.15.6.6,0,0,0-.06.19c0,.34-2.73,34.91,5.54,52.2A146.08,146.08,0,0,0,79,368c7.49,11.13,15.23,22.6,18.35,37.76a98.65,98.65,0,0,1,.82,31,155.35,155.35,0,0,1-2.65,15.6Z"></path><path class="cls-9" d="M75.54,362.36a.44.44,0,0,1-.27-.09.45.45,0,0,1-.18-.21C71,352,76.2,340.21,76.41,339.7a.55.55,0,0,1,.28-.26.5.5,0,0,1,.38,0,.49.49,0,0,1,.26.27.5.5,0,0,1,0,.38c0,.12-5.31,11.91-1.33,21.57a.65.65,0,0,1,0,.19.58.58,0,0,1,0,.19.48.48,0,0,1-.12.16.34.34,0,0,1-.16.1.33.33,0,0,1-.17,0Z"></path><path class="cls-9" d="M84.43,375.77a.53.53,0,0,1-.29-.1.49.49,0,0,1-.17-.25c-3.88-11.65,2.48-24.69,2.74-25.27a.53.53,0,0,1,.29-.24.46.46,0,0,1,.38,0,.44.44,0,0,1,.15.12.34.34,0,0,1,.1.16.64.64,0,0,1,0,.2.55.55,0,0,1-.06.18c-.06.14-6.43,13.23-2.65,24.48a.53.53,0,0,1,0,.39.48.48,0,0,1-.29.25Z"></path><path class="cls-9" d="M92.9,391a.56.56,0,0,1-.28-.1.43.43,0,0,1-.18-.24c-4.17-11.69,7-24.45,7.46-25a.36.36,0,0,1,.16-.11.41.41,0,0,1,.19,0,.43.43,0,0,1,.19,0,.36.36,0,0,1,.16.11.51.51,0,0,1,0,.7c-.11.12-11.24,12.86-7.27,23.94a.52.52,0,0,1,0,.37A.48.48,0,0,1,93,391Z"></path><path class="cls-9" d="M97.88,406.16a.45.45,0,0,1-.33-.12.47.47,0,0,1-.16-.31c-1.56-12.27,11.56-18.38,11.69-18.43a.46.46,0,0,1,.38,0,.51.51,0,0,1,.27.25.5.5,0,0,1-.23.67c-.14,0-12.59,5.86-11.13,17.41a.47.47,0,0,1-.1.36.49.49,0,0,1-.32.19Z"></path><path class="cls-9" d="M99.71,422.69a.43.43,0,0,1-.19,0,.91.91,0,0,1-.16-.11.59.59,0,0,1-.1-.17.64.64,0,0,1,0-.2c.53-10.05,11.23-12.68,11.34-12.71h.19a.6.6,0,0,1,.19.06.62.62,0,0,1,.14.14.53.53,0,0,1,.08.17.67.67,0,0,1,0,.2.64.64,0,0,1-.06.18.38.38,0,0,1-.14.14.38.38,0,0,1-.17.08c-.42.1-10.08,2.49-10.62,11.8a.5.5,0,0,1-.15.32A.43.43,0,0,1,99.71,422.69Z"></path><path class="cls-9" d="M85.9,378.08a.46.46,0,0,1-.23-.06.52.52,0,0,1-.18-.15c-5.88-8.37-20.47-4.76-20.61-4.72a.5.5,0,0,1-.38-.06.46.46,0,0,1-.23-.3.41.41,0,0,1,0-.19.6.6,0,0,1,.06-.19.57.57,0,0,1,.13-.14.38.38,0,0,1,.17-.08c.63-.17,15.4-3.82,21.68,5.11a.38.38,0,0,1,.08.17.45.45,0,0,1,0,.2.67.67,0,0,1-.07.18.62.62,0,0,1-.14.14.55.55,0,0,1-.28.09Z"></path><path class="cls-9" d="M94.41,394.57a.47.47,0,0,1-.25-.07.45.45,0,0,1-.18-.18c-5.41-9.58-22.57-3.26-22.74-3.2a.48.48,0,0,1-.2,0,.61.61,0,0,1-.18-.05.46.46,0,0,1-.16-.11.42.42,0,0,1-.1-.17.41.41,0,0,1,0-.19.41.41,0,0,1,0-.19.36.36,0,0,1,.11-.16.59.59,0,0,1,.17-.1c.73-.28,18.13-6.64,23.9,3.63a.5.5,0,0,1,0,.56.44.44,0,0,1-.15.12.44.44,0,0,1-.19.07Z"></path><path class="cls-9" d="M98.87,412.26a.46.46,0,0,1-.27-.09.49.49,0,0,1-.18-.22c-3.1-7.41-13.27-4.79-13.43-4.78a.41.41,0,0,1-.19,0,.6.6,0,0,1-.19-.06.47.47,0,0,1-.15-.13.38.38,0,0,1-.08-.17.55.55,0,0,1,.05-.38.48.48,0,0,1,.31-.23c.1,0,11.15-2.86,14.6,5.32a.41.41,0,0,1,0,.19.43.43,0,0,1,0,.19.54.54,0,0,1-.1.16.62.62,0,0,1-.17.11.68.68,0,0,1-.2.07Z"></path><path class="cls-45" d="M596.22,338.73c-.52,0-10.3-8.58-10.3-8.58l2.66-10s8.4,3.27,8.69,6.74S599.86,338.79,596.22,338.73Z"></path><path class="cls-46" d="M592.74,341.22H541.85a4.09,4.09,0,0,1-3.65-2.79l-10.62-34.88a1.92,1.92,0,0,1-.16-1,2,2,0,0,1,.34-.94,2,2,0,0,1,.77-.66,1.94,1.94,0,0,1,1-.2h50.93a4.19,4.19,0,0,1,2.25.84,4.12,4.12,0,0,1,1.4,2l10.62,34.88a2,2,0,0,1,.16,1,2,2,0,0,1-.36.95,2,2,0,0,1-.77.65A2,2,0,0,1,592.74,341.22Z"></path><path class="cls-9" d="M541.41,339.82a2,2,0,0,1-1.13-.42,2.1,2.1,0,0,1-.69-1L529,303.55a1,1,0,0,1-.08-.5,1.11,1.11,0,0,1,.17-.47,1,1,0,0,1,.39-.33.92.92,0,0,1,.49-.1h50.91a2,2,0,0,1,1.12.42,2,2,0,0,1,.7,1l10.62,34.88a1,1,0,0,1,.08.49,1,1,0,0,1-.18.48.85.85,0,0,1-.38.32.92.92,0,0,1-.49.1Z"></path><path class="cls-9" d="M570,340.86h-5.7a.54.54,0,0,1-.27-.11.55.55,0,0,1-.18-.24h0a.24.24,0,0,1,0-.12.21.21,0,0,1,0-.11.17.17,0,0,1,.09-.08l.12,0h5.7a.45.45,0,0,1,.27.1.61.61,0,0,1,.18.24h0a.2.2,0,0,1,0,.13.19.19,0,0,1,0,.12.27.27,0,0,1-.1.08.25.25,0,0,1-.12,0Z"></path><path class="cls-11" d="M545.92,326.79a8.24,8.24,0,0,1-7.33-5.61,4.79,4.79,0,0,1,.55-4.3,4.44,4.44,0,0,1,1.62-1.29,4.3,4.3,0,0,1,2-.41,8.28,8.28,0,0,1,7.33,5.61,4.81,4.81,0,0,1,.23,2.22,4.88,4.88,0,0,1-.79,2.09,4.39,4.39,0,0,1-1.61,1.29,4.44,4.44,0,0,1-2,.4Zm-3.13-10.28a3.07,3.07,0,0,0-1.43.27,3,3,0,0,0-1.15.89,3.4,3.4,0,0,0-.55,1.52,3.36,3.36,0,0,0,.19,1.6,6.89,6.89,0,0,0,2.33,3.26,6.73,6.73,0,0,0,3.74,1.41,3.07,3.07,0,0,0,1.43-.27,3,3,0,0,0,1.15-.89,3.4,3.4,0,0,0,.55-1.52,3.37,3.37,0,0,0-.21-1.6,6.86,6.86,0,0,0-6.06-4.67Z"></path><path class="cls-46" d="M538,321.38a5.44,5.44,0,0,1-.27-2.53,5.52,5.52,0,0,1,.92-2.37,5,5,0,0,1,4.18-2v2.66a2.41,2.41,0,0,0-1.13.19,2.54,2.54,0,0,0-.92.7,2.82,2.82,0,0,0-.42,1.23,2.7,2.7,0,0,0,.17,1.29Z"></path><path class="cls-11" d="M562.69,326.79a8.24,8.24,0,0,1-7.34-5.61,4.78,4.78,0,0,1,.55-4.3,4.44,4.44,0,0,1,1.62-1.29,4.39,4.39,0,0,1,2-.41,8.28,8.28,0,0,1,7.33,5.61,4.92,4.92,0,0,1,.24,2.22,4.75,4.75,0,0,1-.78,2.08,4.34,4.34,0,0,1-1.62,1.29,4.26,4.26,0,0,1-2,.41Zm-3.15-10.28a3.2,3.2,0,0,0-1.43.27,3.1,3.1,0,0,0-1.14.89,3.33,3.33,0,0,0-.55,1.52,3.49,3.49,0,0,0,.2,1.6,6.86,6.86,0,0,0,6.07,4.67,3.07,3.07,0,0,0,2.56-1.16,3.4,3.4,0,0,0,.55-1.52,3.48,3.48,0,0,0-.19-1.6,6.89,6.89,0,0,0-6.07-4.67Z"></path><path class="cls-46" d="M554.71,321.38a5.43,5.43,0,0,1-.25-2.53,5.5,5.5,0,0,1,.91-2.37,5.07,5.07,0,0,1,1.85-1.49,5,5,0,0,1,2.32-.47v2.66a2.34,2.34,0,0,0-1.13.2,2.37,2.37,0,0,0-.91.69,2.81,2.81,0,0,0-.24,2.52Z"></path><path class="cls-11" d="M579.46,326.79a8.21,8.21,0,0,1-7.33-5.61,4.63,4.63,0,0,1-.24-2.21,4.79,4.79,0,0,1,.78-2.09,4.53,4.53,0,0,1,1.62-1.29,4.33,4.33,0,0,1,2-.41,8.28,8.28,0,0,1,7.33,5.61,4.81,4.81,0,0,1,.23,2.22,4.64,4.64,0,0,1-.79,2.09,4.31,4.31,0,0,1-1.61,1.29A4.4,4.4,0,0,1,579.46,326.79Zm-3.14-10.28a3.07,3.07,0,0,0-1.43.27,3,3,0,0,0-1.14.89,3.4,3.4,0,0,0-.55,1.52,3.36,3.36,0,0,0,.19,1.6,6.8,6.8,0,0,0,2.32,3.26,6.91,6.91,0,0,0,3.75,1.41,3,3,0,0,0,1.42-.26,3.16,3.16,0,0,0,1.15-.9,3.4,3.4,0,0,0,.55-1.52,3.49,3.49,0,0,0-.2-1.6,6.86,6.86,0,0,0-6.06-4.67Z"></path><path class="cls-46" d="M571.49,321.38a5.31,5.31,0,0,1-.26-2.53,5.38,5.38,0,0,1,.91-2.37A5.15,5.15,0,0,1,574,315a5.07,5.07,0,0,1,2.33-.47v2.66a2.43,2.43,0,0,0-1.13.19,2.5,2.5,0,0,0-.91.7,2.71,2.71,0,0,0-.43,1.23,2.83,2.83,0,0,0,.18,1.29Z"></path><path class="cls-47" d="M547,322.06h-4.62l-.65-2.13h4.62Z"></path><path class="cls-47" d="M563.75,322.06h-4.63l-.65-2.13h4.63Z"></path><path class="cls-47" d="M580.52,322.06H575.9l-.65-2.13h4.62Z"></path><path class="cls-48" d="M613.32,342.56c-3.13-1.86-6.13-3.75-8.72-5.57l-3-2.75s-3.57-11.76-4.46-12.78-8.9-4.12-8.9-4.12l1.24,4.13c-1.33-.61-3.33-1.71-3.47-1.78-.35-.19-2.4,1.55-.09,3.2a51.25,51.25,0,0,0,5.62,3.33s2.49,10.2,4,13.06c.65,1.33,8.45,10.64,17.83,19.69Z"></path><path class="cls-10" d="M526.5,538.22c39.37,0,71.29-7.66,71.29-17.11S565.87,504,526.5,504s-71.29,7.67-71.29,17.12S487.13,538.22,526.5,538.22Z"></path><path class="cls-10" d="M638.13,542c23.46,0,42.48-4.57,42.48-10.2s-19-10.2-42.48-10.2-42.48,4.57-42.48,10.2S614.67,542,638.13,542Z"></path><path class="cls-49" d="M555.28,503.41a7,7,0,0,1-9-3.54,5.25,5.25,0,0,1-.36-1.1l-.56-2.35-15.93-68.49-.68-2.92a10.15,10.15,0,0,1,6.33-11.71,10.91,10.91,0,0,1,14,5.54,9.38,9.38,0,0,1,.73,2.66l.36,2.76,8.94,69.68.32,2.58a6.54,6.54,0,0,1-4.2,6.89Z"></path><path class="cls-50" d="M561.68,493.36l-.66-4.18-9.19,2.66-.85,3.35-2.66-2.38-8.2,2.33L540,512.65a3.93,3.93,0,0,1-1.84,3.25l-7.44,4.74a2.05,2.05,0,0,0-.88,2.32h0a2.16,2.16,0,0,0,.92,1.16,2.14,2.14,0,0,0,1.46.3l15.68-2.07a4.2,4.2,0,0,0,1.61-.57,4,4,0,0,0,1.25-1.18l6.34-9.2,3,8.19,4.44-1.26,1.78-17.91Z"></path><path class="cls-51" d="M557.1,511.39l3,8.19,4.42-1.25,1.39-14Z"></path><path class="cls-39" d="M558.05,474.71c-.62-5.21-6.87-58-6.87-58l-.17-1.21-.23-1.74a11.07,11.07,0,0,0-.89-3.24,12.77,12.77,0,0,0-11.84-7.58,13.26,13.26,0,0,0-4.9.94,12.18,12.18,0,0,0-7.59,14.08l.71,3.14s11,47.51,13.28,56.25S558.68,479.93,558.05,474.71Z"></path><path class="cls-52" d="M621.31,294.9a10.34,10.34,0,0,1,13.28,5.39,9.33,9.33,0,0,1,.74,3.87c-.33,13.68-.33,13.73-.65,27.34v.09a9.76,9.76,0,0,1-6.36,8.82,10.35,10.35,0,0,1-13.27-5.32,9.27,9.27,0,0,1-.75-3.89h0c.33-13.66.33-13.72.67-27.32v-.09a9.74,9.74,0,0,1,6.34-8.89Z"></path><path class="cls-53" d="M616.89,309.94l.33.08c9.3,2.12,18.59-3.38,20.87-12.27l2.66-10.49a16.71,16.71,0,0,0,.18-6.57,16.51,16.51,0,0,0-13-13.38l-.33-.08c-9.29-2.13-18.58,3.38-20.87,12.27L604.07,290a16.47,16.47,0,0,0-.18,6.56,16.51,16.51,0,0,0,7,10.83,16.31,16.31,0,0,0,6,2.55Z"></path><path class="cls-54" d="M611.62,323.83,638,322.7l-.44-6.51a2.47,2.47,0,0,0-.31-1,2.44,2.44,0,0,0-.66-.77,2.41,2.41,0,0,0-.92-.42,2.45,2.45,0,0,0-1,0l-18,3.22a6,6,0,0,0-5.06,6.54Z"></path><path class="cls-55" d="M498.25,510.14a6.7,6.7,0,0,1-4.79-1.86,6.78,6.78,0,0,1-2.09-4.71,7.23,7.23,0,0,1,.12-1.14l.44-2.38L504.7,430.9l.56-2.95a10.75,10.75,0,0,1,21.24,1.78,9.91,9.91,0,0,1-.4,2.76l-.78,2.66-19.73,67.71-.74,2.5a6.89,6.89,0,0,1-2.52,3.48,6.79,6.79,0,0,1-4.08,1.3Z"></path><path class="cls-50" d="M507.34,502.63l.49-3.66-17.55-2.08-8.76,16c-.54,1.2-2.73,2.17-4.07,2.42l-8.78,1.64a2.13,2.13,0,0,0-1.74,1.91h0a2.13,2.13,0,0,0,1.62,2.24l15.3,3.83a4.2,4.2,0,0,0,1.73.07,4.11,4.11,0,0,0,1.62-.62l9.54-6.17-.5,8.68,4.6.47,8.84-15.89Z"></path><path class="cls-56" d="M496.72,518.18l-.49,8.67,4.6.48,6.91-12.43Z"></path><path class="cls-39" d="M634.55,413.15v-.42A18.82,18.82,0,0,0,614,394l-96.55,9.31h-.24l-1,.15h-.24l-.93.22-.27.1a6.28,6.28,0,0,0-.83.29l-.31.12-.74.33-.36.19-.62.33-.41.27-.51.34-.45.33-.41.34-.49.42-.29.3a6.57,6.57,0,0,0-.52.54l-.2.23c-.19.21-.36.44-.53.66l-.11.16c-.18.25-.36.51-.57.85a12,12,0,0,0-1.53,4l-.28,1.45c-1.68,9.1-3.73,20.27-5.74,31.32-2,10.76-4.89,27.48-6,33.48s16.69,9.52,18.25,4.75,16.61-55.85,16.61-55.85l86.36,3.26a18.76,18.76,0,0,0,13.7-5.23,18.62,18.62,0,0,0,4.26-6.15,18.88,18.88,0,0,0,1.54-7.33Z"></path><path class="cls-35" d="M634.12,417.48c-3.59,9.1-59.15-15-54.19-20.9,6.64-8,11.53-13.65,11.53-13.65s-3.48-49-.56-52.46c4.55-5.41,19.22-7.64,34.7-9.3,12.93-1.33,18,3.85,19.29,6.83,3.2,7.25-12.93,65.86-12.93,65.86S636.19,412.44,634.12,417.48Z"></path><path class="cls-57" d="M575.13,369.29c-4-3-21.14-17.06-27.52-23-1.93-2.17-3.11-3.66-3.16-3.73-.24-.34.26-3.79.08-4.71s-.3-4.74-.43-5.19-3.76-5.32-4.17-5.8-2-.46-1.56,1.33,1.68,4,1,4-2.83-1.85-3-2.14-.23-8-.24-8.64-1.89-2.14-2.27-.68-1.21,8.46-1.21,8.46-2.5,4.59-2.14,5.48l.25.61a3.26,3.26,0,0,0-.59,1.33,5.07,5.07,0,0,0,.55,1.51,18,18,0,0,0,0,2.08,67.08,67.08,0,0,0,7.59,9.31c.06,0,25.79,44.14,37.92,36.23C583,381.22,579.48,372.55,575.13,369.29Z"></path><path class="cls-58" d="M559.4,355.61s-.92-.59-3.83-3-12,7-9.29,10.44c2,2.58,4.67,5.87,4.67,5.87Z"></path><path class="cls-35" d="M610.12,337a10.57,10.57,0,0,0-.9-4.07,10.44,10.44,0,0,0-2.38-3.41,10.61,10.61,0,0,0-7.62-2.95,11,11,0,0,0-9.65,5.6h0l-17.85,32.69c-3.84-2.91-10.07-7.71-11.59-8.83-3.54-2.58-13.44,8.23-10.45,12.05,1.91,2.47,9.17,11,12,13.55a28.93,28.93,0,0,0,7.51,5.32,8.74,8.74,0,0,0,4.1,1h.11a8.69,8.69,0,0,0,7.1-3.76l27.88-41.59a10.09,10.09,0,0,0,1.79-5.59Z"></path><path class="cls-59" d="M659.93,343.9H607.65a6.1,6.1,0,0,0-5.83,4.3l-25.46,81.26H533.42a3.84,3.84,0,0,0-3.84,3.84v.09a3.84,3.84,0,0,0,3.84,3.84H639l26.74-85.37A6.07,6.07,0,0,0,666,349a6.06,6.06,0,0,0-3.27-4.45,6,6,0,0,0-2.76-.67Z"></path><path class="cls-60" d="M605.69,437.24h-9.48V503h9.48Z"></path><path class="cls-61" d="M608.1,437.24H593.94v10.45H608.1Z"></path><path class="cls-59" d="M606.39,472.21H595.64v35.3h10.75Z"></path><path class="cls-35" d="M554.79,524a5.89,5.89,0,0,0,10.07,4.15,5.94,5.94,0,0,0,1.61-3,6,6,0,0,0-.34-3.41,5.9,5.9,0,0,0-7.71-3.19,6,6,0,0,0-1.91,1.28,5.93,5.93,0,0,0-1.28,1.92,6.07,6.07,0,0,0-.44,2.27Z"></path><path class="cls-11" d="M557.6,524a3.07,3.07,0,0,0,.52,1.71,3,3,0,0,0,1.39,1.13,3,3,0,0,0,1.77.18,3.09,3.09,0,0,0,1.58-.84,3,3,0,0,0,.84-1.58,3.07,3.07,0,0,0-3-3.69A3.09,3.09,0,0,0,557.6,524Z"></path><path class="cls-35" d="M559.59,511.52h-2.08v7.61h2.08Z"></path><path class="cls-35" d="M647.11,524a5.9,5.9,0,0,1-7.06,5.77,5.86,5.86,0,0,1-3-1.62,5.94,5.94,0,0,1-1.61-3,5.9,5.9,0,0,1,8-6.6,5.91,5.91,0,0,1,3.19,3.2A5.89,5.89,0,0,1,647.11,524Z"></path><path class="cls-11" d="M644.29,524a3.07,3.07,0,0,1-1.9,2.84,3,3,0,0,1-1.78.18,3.13,3.13,0,0,1-1.58-.84,3.09,3.09,0,0,1-.84-1.58,3.08,3.08,0,0,1,3-3.69,3.07,3.07,0,0,1,3.08,3.09Z"></path><path class="cls-35" d="M644.37,511.52h-2.08v7.61h2.08Z"></path><path class="cls-35" d="M599.14,525.84a5.91,5.91,0,1,0-5.89-5.9A5.9,5.9,0,0,0,599.14,525.84Z"></path><path class="cls-11" d="M602.22,519.94a3.1,3.1,0,0,1-1.9,2.85,3.18,3.18,0,0,1-1.78.18,3.07,3.07,0,0,1-1.57-.85,3.06,3.06,0,0,1-.67-3.36,3.08,3.08,0,0,1,5.92,1.18Z"></path><path class="cls-35" d="M602.3,507.51h-2.08v7.6h2.08Z"></path><path class="cls-59" d="M557.51,516.1l38.06-8.55v-7.26l-38.06,10.77Z"></path><path class="cls-59" d="M644.45,516.1l-38.06-8.55v-7.26l38.06,10.77Z"></path><path class="cls-61" d="M579.48,419.5l.44-1.39H645l-.44,1.39Zm7.14-22.8L586.2,398h65l.44-1.33Zm-3.34,10.63-.44,1.33h65l.44-1.33Zm13.41-42.76-.43,1.33h65l.44-1.33ZM600,353.85l-.43,1.4h65l.43-1.4Zm-6.63,21.42-.44,1.4h65l.42-1.4ZM590.05,386l-.44,1.33h65l.44-1.33Z"></path><path class="cls-36" d="M644.89,289.45h-.23q.23-2,.39-3.78c1-11.44-4.46-17.12-11.84-19.17l-1.69-.47-.32-.09L625,264.23a11.52,11.52,0,0,0-10.76-.2,11.34,11.34,0,0,0-5.49,6.33l7.26,2c-1.52,3.64-1.52,11.42,3.79,14.62a3.74,3.74,0,0,1,.94-.13,4,4,0,0,1,3.68,3.3,4,4,0,0,1-2.35,4.35c.6,1.46,7.53,50.41,22.82,50.41a27.75,27.75,0,1,0,0-55.49Z"></path></g></svg> 